<?xml version="1.0" standalone="no"?>
<!DOCTYPE svg PUBLIC "-//W3C//DTD SVG 20010904//EN"
 "http://www.w3.org/TR/2001/REC-SVG-20010904/DTD/svg10.dtd">
<svg version="1.0" xmlns="http://www.w3.org/2000/svg"
 width="1280.000000pt" height="1280.000000pt" viewBox="0 0 1280.000000 1280.000000"
 preserveAspectRatio="xMidYMid meet">

<g transform="translate(0.000000,1280.000000) scale(0.100000,-0.100000)"
fill="#000000" stroke="none">
<path d="M0 11199 c0 -1051 3 -1607 10 -1619 7 -13 7 -21 0 -25 -5 -3 -10 -22
-10 -41 0 -27 4 -34 20 -34 26 0 26 -17 0 -25 -11 -3 -20 -12 -20 -20 0 -15
56 -75 71 -75 5 0 9 -4 9 -9 0 -6 -9 -8 -20 -6 -12 2 -28 1 -36 -2 -13 -5 -13
-8 2 -24 10 -11 12 -19 6 -19 -7 0 -12 -4 -12 -10 0 -14 38 -12 43 3 2 6 8 8
13 4 5 -4 4 -11 -2 -15 -15 -10 -24 -78 -12 -90 7 -7 2 -16 -16 -27 -20 -14
-24 -21 -16 -35 8 -15 6 -20 -10 -25 -19 -6 -20 -18 -20 -756 0 -641 2 -749
14 -749 8 0 17 6 19 13 4 8 8 9 14 1 4 -6 25 -11 47 -11 27 -1 35 2 28 9 -8 8
-8 17 -1 31 10 17 8 18 -20 12 -24 -5 -31 -3 -31 9 0 10 9 16 25 16 16 0 25 6
25 15 0 29 40 34 68 8 29 -27 50 -30 58 -8 7 17 40 20 49 5 4 -6 10 -8 14 -6
9 6 177 -63 210 -86 22 -15 23 -21 17 -68 -4 -29 -11 -60 -16 -71 -6 -10 -14
-28 -20 -39 -5 -11 -10 -26 -10 -33 0 -7 -19 -49 -42 -93 -23 -43 -52 -99 -65
-123 -13 -25 -32 -53 -42 -62 -11 -10 -22 -32 -26 -49 -4 -16 -11 -30 -16 -30
-5 0 -15 -12 -21 -27 -7 -16 -24 -41 -39 -56 -14 -15 -30 -38 -36 -50 -37 -83
-68 -137 -94 -164 -16 -18 -29 -37 -29 -42 0 -6 -5 -11 -11 -11 -7 0 -9 -10
-7 -25 3 -14 -1 -30 -8 -36 -11 -9 -14 -8 -14 5 0 22 -13 20 -28 -4 -10 -17
-10 -21 3 -26 8 -4 15 -13 15 -21 0 -9 -6 -13 -15 -10 -12 5 -14 -64 -14 -541
l0 -547 24 50 c12 28 39 91 60 140 20 50 45 108 55 130 10 22 27 63 38 90 48
119 164 387 223 513 22 45 39 85 39 88 0 7 151 335 232 504 28 58 54 114 58
125 4 11 111 229 238 485 126 256 233 476 237 490 4 14 11 30 15 35 7 10 47
80 100 176 76 140 162 272 194 298 12 10 17 8 27 -11 7 -12 36 -53 64 -91 29
-38 59 -80 66 -95 8 -15 17 -29 20 -32 14 -12 89 -135 89 -146 0 -7 3 -14 8
-16 8 -3 52 -64 52 -72 0 -2 23 -42 52 -88 28 -46 65 -108 82 -138 16 -30 34
-59 39 -65 22 -27 152 -266 168 -312 13 -35 18 -75 17 -125 -1 -46 -4 -64 -8
-48 -8 29 -7 31 -45 -93 -15 -48 -31 -89 -35 -92 -4 -3 -6 17 -4 43 2 26 1 38
-2 27 -3 -11 -16 -44 -30 -73 -13 -29 -24 -55 -24 -58 0 -3 -27 -73 -61 -156
-33 -83 -67 -171 -76 -197 -17 -50 -78 -214 -93 -246 -5 -11 -34 -92 -65 -180
-32 -88 -73 -203 -92 -255 -19 -52 -41 -115 -49 -140 -8 -25 -19 -54 -24 -65
-5 -11 -21 -58 -36 -105 -15 -47 -36 -103 -48 -125 -11 -22 -23 -49 -26 -60
-3 -11 -9 -15 -12 -10 -15 24 119 449 247 780 15 39 33 88 40 110 7 22 37 103
65 180 29 77 70 190 92 250 83 227 145 393 158 420 23 49 71 210 67 229 -3 21
-4 21 -11 1 -5 -11 -24 -58 -43 -105 -34 -80 -50 -119 -102 -232 -11 -26 -21
-52 -21 -57 0 -9 -63 -159 -90 -216 -5 -11 -26 -65 -45 -120 -233 -653 -285
-804 -297 -860 -6 -27 -34 -108 -63 -180 -30 -71 -69 -175 -88 -230 -42 -122
-83 -215 -94 -215 -5 0 -14 -15 -21 -33 -8 -20 -15 -28 -20 -20 -4 7 -15 -6
-26 -35 -11 -26 -29 -58 -40 -72 -19 -24 -58 -115 -85 -201 -6 -20 -8 -50 -5
-67 4 -21 3 -32 -5 -32 -6 0 -11 -16 -11 -35 0 -32 -33 -129 -60 -177 -6 -10
-10 -29 -10 -42 0 -14 -5 -37 -11 -53 -6 -15 -16 -59 -23 -98 -16 -82 -51
-183 -74 -208 -23 -26 -6 -36 83 -47 88 -11 130 -34 69 -37 -71 -4 -156 -61
-169 -114 -4 -17 -24 -38 -53 -56 -53 -34 -174 -93 -191 -93 -6 0 -19 -4 -29
-10 -42 -23 -251 -81 -457 -125 -33 -7 -79 -18 -103 -24 l-42 -12 0 -64 c0
-65 0 -65 28 -65 41 0 175 35 252 66 185 75 275 103 389 124 35 6 71 15 80 20
9 5 81 30 161 56 80 26 167 58 194 72 42 21 104 45 241 94 17 6 35 14 40 18
12 10 176 60 194 60 26 0 -7 -25 -59 -45 -29 -11 -55 -26 -57 -32 -3 -7 -14
-13 -25 -13 -11 0 -32 -9 -46 -21 -15 -11 -52 -36 -82 -54 -53 -33 -84 -56
-136 -103 -14 -12 -30 -22 -36 -22 -6 0 -25 -10 -42 -23 -17 -13 -53 -34 -81
-48 -27 -13 -52 -27 -55 -31 -3 -3 -33 -16 -68 -28 -61 -21 -124 -27 -362 -34
-164 -5 -243 -29 -305 -94 -43 -45 -78 -118 -71 -145 3 -13 -4 -31 -20 -50
-14 -16 -23 -36 -20 -43 4 -8 8 -20 11 -26 7 -19 -11 -42 -25 -33 -7 5 -10 19
-6 41 8 42 -2 84 -21 84 -8 0 -28 -8 -44 -17 l-29 -17 0 -141 0 -140 28 0 c35
0 58 18 64 50 6 28 -18 55 -48 56 -18 0 -18 1 -1 8 10 3 23 17 30 31 19 37 35
35 53 -7 9 -21 20 -46 25 -55 15 -30 10 -107 -10 -147 -23 -44 -65 -66 -110
-56 l-31 7 0 -1491 0 -1491 6400 0 6400 0 0 6400 0 6400 -6400 0 -6400 0 0
-1601z m3253 -1192 c-2 -30 -32 -76 -49 -77 -7 0 -14 -9 -17 -19 -3 -14 -11
-18 -26 -14 -16 4 -31 -4 -57 -32 -45 -48 -42 -68 13 -75 l41 -5 -46 -40
c-110 -96 -152 -144 -152 -175 0 -19 7 -34 20 -42 11 -7 20 -16 20 -20 0 -16
-27 -7 -57 20 -31 27 -53 72 -35 72 5 0 12 -9 15 -20 6 -23 27 -27 27 -6 0 13
-55 76 -66 76 -2 0 -4 -18 -4 -40 0 -41 -7 -49 -27 -29 -8 8 -7 18 2 36 19 37
5 68 -31 68 -35 0 -43 25 -15 42 14 9 28 10 46 3 20 -7 25 -6 25 5 0 8 -5 14
-11 13 -6 -2 -13 2 -16 9 -2 7 12 19 32 27 29 12 40 13 56 3 10 -6 19 -15 19
-19 0 -11 72 31 90 52 9 10 25 34 35 54 11 19 28 36 40 38 15 2 20 10 18 31
-2 26 0 28 28 22 30 -7 41 8 14 19 -23 9 -18 21 18 38 42 20 52 17 50 -15z
m-426 -369 c-3 -8 -6 -5 -6 6 -1 11 2 17 5 13 3 -3 4 -12 1 -19z m5567 -4 c15
-14 17 -14 22 0 7 19 28 21 43 3 6 -8 28 -12 56 -11 42 3 49 -1 82 -35 34 -36
53 -91 32 -91 -5 0 -9 -5 -9 -11 0 -6 7 -8 17 -5 10 4 14 4 10 0 -9 -9 13 -35
24 -28 5 3 3 13 -3 24 -16 25 5 50 41 50 15 0 21 -3 14 -8 -6 -4 -14 -23 -18
-43 -5 -28 -3 -38 9 -42 10 -4 13 -1 9 9 -3 7 -1 14 5 14 6 0 12 -4 14 -9 2
-5 17 -11 33 -14 30 -4 69 -18 115 -42 29 -16 33 -38 8 -43 -13 -2 -18 3 -18
17 0 13 -6 21 -17 21 -25 0 -112 -29 -91 -29 9 -1 29 -13 45 -27 27 -25 27
-26 11 -54 -15 -27 -15 -28 8 -39 15 -7 22 -16 18 -26 -4 -10 0 -15 10 -15 9
0 16 -7 16 -15 0 -8 -8 -15 -19 -15 -10 0 -24 7 -31 15 -7 8 -16 15 -21 15 -5
0 -9 -7 -9 -15 0 -8 -4 -15 -10 -15 -15 0 -41 -57 -34 -74 9 -23 27 -20 21 3
-3 13 1 21 15 24 28 8 88 -4 88 -16 0 -7 4 -7 12 1 14 14 38 16 38 4 0 -5 -11
-14 -25 -20 -15 -7 -25 -20 -25 -32 0 -11 -3 -19 -7 -19 -24 4 -34 -4 -13 -10
14 -4 31 -3 38 2 16 12 26 3 19 -18 -4 -8 -17 -15 -31 -15 -32 0 -42 -16 -19
-29 16 -9 16 -10 -3 -11 -23 0 -48 -23 -37 -33 3 -4 24 -7 45 -7 27 0 38 -4
38 -15 0 -9 -6 -18 -14 -21 -20 -8 -27 -31 -20 -60 5 -18 13 -24 35 -24 30 0
36 -9 18 -27 -12 -12 4 -53 22 -53 6 0 8 -11 5 -27 -7 -32 7 -63 19 -44 5 9
10 9 21 0 7 -6 21 -9 29 -5 12 4 15 -2 15 -29 0 -19 5 -35 10 -35 6 0 10 -4
10 -10 0 -5 -11 -10 -25 -10 -14 0 -25 -5 -25 -12 0 -6 -7 -20 -17 -30 -14
-16 -14 -20 -1 -35 8 -10 18 -26 21 -35 9 -26 63 -24 77 2 6 11 21 22 35 26
15 4 22 11 18 20 -3 8 5 17 21 24 14 5 26 13 26 17 -1 12 -23 37 -44 49 -11 6
-20 22 -21 38 -1 31 10 42 28 28 13 -11 41 3 48 25 6 20 69 -35 69 -60 0 -17
2 -19 9 -8 16 25 32 -45 32 -143 1 -43 6 -78 15 -92 9 -13 15 -45 15 -81 -1
-32 1 -91 3 -130 3 -40 1 -75 -4 -78 -5 -3 -7 -12 -3 -20 3 -9 -1 -15 -11 -15
-20 0 -21 -16 -1 -24 8 -3 12 -12 9 -20 -3 -8 -12 -12 -19 -10 -7 3 -16 -3
-19 -14 -6 -18 -8 -18 -52 4 -26 13 -51 28 -58 33 -6 5 -29 12 -51 16 -22 4
-47 13 -55 20 -17 14 -80 12 -155 -6 -90 -21 -113 -67 -26 -54 80 12 215 6
224 -10 4 -8 22 -15 38 -15 17 0 39 -4 49 -10 22 -12 79 -22 136 -24 22 0 47
-6 55 -12 8 -6 39 -14 69 -17 31 -4 84 -16 120 -28 66 -21 347 -158 419 -203
22 -14 43 -26 45 -26 2 0 52 -22 110 -50 58 -27 109 -50 113 -50 4 0 37 -11
73 -24 149 -55 203 -66 365 -77 167 -10 235 -25 297 -62 43 -27 138 -114 138
-127 0 -4 10 -21 23 -37 12 -15 30 -46 41 -68 10 -22 22 -47 27 -55 30 -52 94
-209 101 -246 2 -16 -3 -19 -32 -19 -24 0 -35 -5 -35 -15 0 -10 8 -14 25 -12
17 1 21 -1 11 -7 -10 -7 -11 -13 -1 -30 6 -12 10 -29 8 -39 -1 -9 5 -28 15
-42 14 -20 19 -22 26 -11 7 11 12 4 20 -26 10 -36 32 -59 52 -55 4 1 5 -7 2
-17 -3 -10 0 -22 6 -25 6 -4 11 -17 11 -30 0 -13 10 -34 21 -47 12 -13 30 -42
40 -65 10 -22 27 -49 39 -59 11 -10 20 -28 20 -40 0 -13 7 -28 15 -35 8 -7 15
-18 15 -25 0 -8 11 -27 25 -43 14 -17 25 -34 25 -39 0 -6 14 -29 30 -51 17
-23 30 -47 30 -53 0 -6 15 -34 34 -62 19 -29 40 -65 47 -82 8 -16 16 -32 20
-35 3 -3 19 -33 34 -67 15 -35 31 -63 36 -63 4 0 11 -10 15 -22 4 -13 17 -36
30 -51 13 -16 24 -33 24 -38 0 -5 11 -26 23 -47 13 -20 32 -58 42 -84 9 -26
28 -55 41 -65 13 -10 24 -25 24 -35 0 -9 14 -26 30 -38 17 -12 30 -26 30 -32
0 -10 21 -39 73 -102 15 -19 27 -37 27 -41 0 -5 11 -23 25 -41 14 -18 25 -35
25 -38 0 -5 53 -87 72 -111 4 -5 32 -41 60 -79 29 -38 81 -99 114 -135 118
-126 135 -146 184 -222 33 -49 54 -95 62 -130 11 -53 10 -57 -21 -116 -18 -34
-63 -91 -100 -128 -78 -78 -149 -127 -307 -213 -54 -30 -173 -82 -199 -88 -16
-4 -34 -10 -40 -14 -5 -5 -28 -11 -50 -15 -22 -4 -47 -13 -55 -20 -8 -7 -37
-20 -65 -28 -27 -9 -75 -25 -105 -36 -56 -21 -100 -25 -133 -12 -17 6 -17 8
-3 20 9 7 16 20 16 27 0 11 -20 14 -87 14 -49 0 -95 4 -103 9 -8 6 -19 7 -24
3 -18 -11 -50 -11 -78 0 -20 7 -36 7 -55 0 -16 -6 -43 -13 -60 -16 -28 -5 -33
-3 -33 14 0 24 -9 25 -36 5 -10 -8 -33 -15 -51 -15 -17 0 -34 -3 -36 -8 -3 -4
-29 -8 -59 -10 -44 -2 -61 2 -92 23 -21 14 -41 24 -43 21 -6 -5 -20 5 -62 44
-22 20 -32 23 -52 16 -20 -7 -31 -4 -51 15 -14 13 -37 32 -52 42 -14 10 -26
26 -26 35 0 20 -84 114 -94 105 -3 -4 -6 3 -6 15 0 25 -16 56 -43 84 -12 13
-15 27 -11 46 4 19 3 23 -4 13 -18 -25 -29 37 -35 198 -1 33 3 60 11 67 8 8 9
15 2 19 -16 10 -12 45 6 45 12 0 15 6 11 23 -4 12 -2 28 2 36 7 10 12 8 25
-10 9 -13 16 -30 16 -39 0 -9 7 -26 16 -38 14 -21 14 -22 -6 -22 -12 0 -18 -4
-15 -10 3 -5 15 -10 26 -10 14 0 19 -7 19 -27 0 -28 44 -83 67 -83 7 0 13 -7
13 -15 0 -10 10 -15 26 -15 22 0 26 4 21 22 -3 13 -10 49 -17 80 -10 44 -17
58 -33 60 -15 2 -20 12 -22 38 -1 19 -16 65 -33 102 -17 37 -34 78 -36 90 -3
13 -14 49 -25 80 -12 32 -21 63 -21 70 0 6 -9 30 -19 52 -25 53 -54 174 -48
197 3 11 1 22 -5 25 -10 7 -3 178 8 209 4 8 1 15 -5 15 -16 0 -13 25 4 40 8 7
15 27 15 44 0 47 60 106 135 135 33 12 75 29 93 37 18 8 39 14 46 14 8 0 18 6
24 13 9 10 -20 12 -142 12 -132 0 -155 2 -170 18 -11 11 -26 15 -41 11 -18 -4
-26 0 -35 17 -7 12 -22 32 -35 43 -21 20 -24 53 -4 40 5 -3 9 4 9 16 0 11 8
23 18 27 9 3 23 11 31 17 7 6 19 11 25 11 6 1 40 15 76 33 36 18 71 32 78 32
6 0 12 4 12 9 0 5 22 24 50 42 43 29 65 59 43 59 -14 0 -112 -60 -138 -84 -29
-27 -45 -33 -45 -16 0 6 -18 -1 -39 -14 -21 -14 -41 -22 -44 -19 -4 3 -13 -2
-23 -11 -9 -10 -24 -14 -35 -11 -16 5 -19 1 -19 -27 l-1 -33 -15 28 c-11 20
-22 27 -42 27 -53 -2 -134 28 -160 60 -14 16 -33 30 -42 30 -19 0 -30 19 -30
51 0 11 -7 19 -16 19 -13 0 -15 8 -12 37 4 31 0 41 -20 58 -14 10 -44 20 -66
21 -30 2 -47 9 -63 29 -24 27 -23 45 2 45 21 0 88 40 103 61 7 11 18 19 24 19
16 0 58 41 58 57 0 19 -25 16 -68 -7 -79 -42 -117 -54 -164 -52 -27 1 -48 -2
-48 -8 0 -5 -18 -10 -40 -10 -22 0 -40 4 -40 9 0 16 -28 20 -62 10 -18 -5 -63
-6 -100 -3 -54 5 -73 12 -99 35 -26 23 -30 32 -24 58 8 39 -3 91 -19 91 -6 0
-18 -16 -25 -36 -24 -66 -72 -134 -96 -134 -11 0 -36 -11 -55 -25 -19 -14 -39
-25 -45 -25 -7 0 -17 -12 -24 -26 -10 -22 -16 -25 -41 -20 -23 4 -33 1 -42
-14 -7 -11 -19 -20 -26 -20 -7 0 -18 -5 -25 -10 -7 -6 -37 -26 -67 -44 -30
-18 -54 -37 -53 -44 2 -6 -9 -10 -24 -9 -31 2 -42 -19 -14 -28 11 -3 20 -11
18 -17 -1 -6 3 -12 10 -15 6 -2 13 6 15 19 2 18 10 24 37 26 23 2 35 9 38 23
3 10 14 19 24 19 22 0 22 1 8 -38 -7 -22 -7 -36 1 -51 9 -17 8 -21 -5 -21 -12
0 -15 -6 -10 -20 8 -24 -10 -50 -33 -50 -8 0 -21 -8 -28 -17 -12 -17 -13 -16
-22 6 -8 23 -9 21 -16 -19 -4 -27 -3 -46 3 -48 5 -2 7 -10 4 -18 -7 -19 -39
-18 -47 2 -5 13 -9 14 -21 4 -18 -15 -20 -56 -2 -63 6 -3 0 -6 -15 -6 -20 -1
-26 -5 -21 -16 3 -9 -10 -50 -28 -93 -30 -69 -43 -93 -101 -180 -15 -23 -15
-28 -2 -54 8 -16 10 -28 4 -28 -5 0 -10 -12 -10 -27 0 -21 3 -24 12 -15 34 34
95 -8 138 -94 11 -23 28 -48 38 -57 22 -19 101 -57 120 -57 17 0 89 -72 102
-102 6 -13 14 -30 19 -38 5 -8 30 -58 56 -111 45 -94 47 -100 52 -212 4 -84 3
-120 -6 -131 -7 -8 -13 -35 -14 -60 -2 -33 -6 -46 -19 -50 -10 -2 -18 -1 -18
4 0 10 -56 21 -74 14 -18 -7 -8 -44 12 -44 37 0 1 -9 -58 -14 -69 -7 -92 -22
-83 -56 3 -11 1 -20 -4 -20 -5 0 -15 -17 -22 -37 -8 -21 -19 -41 -25 -45 -7
-5 -7 -18 0 -47 10 -35 9 -40 -8 -44 -10 -3 -18 -14 -18 -27 0 -11 -12 -32
-26 -45 -20 -18 -25 -30 -20 -49 4 -15 1 -26 -6 -28 -7 -3 -12 -20 -11 -39 1
-30 -4 -36 -38 -53 -39 -19 -47 -30 -30 -40 5 -3 11 -16 13 -29 5 -24 4 -24
-26 -8 -17 9 -33 17 -35 18 -2 2 1 9 8 17 9 11 6 20 -13 43 -17 20 -23 37 -19
51 5 22 -10 31 -22 12 -4 -6 -11 -8 -16 -4 -13 8 9 34 28 34 8 0 13 3 11 8 -3
4 -10 22 -17 40 -7 17 -19 32 -26 32 -7 0 -16 8 -20 18 -7 16 -8 15 -16 -3 -7
-15 -8 -12 -3 12 6 37 -3 45 -45 37 -37 -8 -40 -20 -6 -28 14 -4 25 -13 25
-21 0 -17 -43 -32 -48 -16 -2 6 -12 11 -22 11 -9 0 -24 8 -31 17 -12 15 -12
16 3 10 17 -6 43 15 32 26 -4 3 -19 3 -35 0 -18 -3 -38 1 -54 11 -13 9 -33 16
-44 16 -25 0 -33 13 -26 42 5 21 11 23 43 20 l37 -5 -19 22 c-21 24 -66 29
-66 7 0 -13 -34 -41 -55 -45 -14 -3 -27 -29 -20 -41 4 -6 -10 -10 -34 -10 -38
0 -40 2 -47 36 -5 26 -3 39 7 45 12 8 12 11 -1 19 -8 5 -24 10 -34 10 -18 0
-18 -1 -3 -18 14 -16 15 -21 4 -36 -12 -16 -16 -17 -35 -5 -14 9 -22 24 -22
42 0 22 -4 28 -15 23 -11 -4 -15 1 -15 19 0 21 5 25 30 25 24 0 30 4 29 23 0
12 2 31 6 42 4 14 -1 24 -16 34 -19 11 -23 11 -32 -5 -6 -11 -23 -32 -39 -47
-15 -16 -28 -39 -28 -51 0 -13 -9 -31 -20 -41 -12 -10 -19 -24 -16 -31 3 -8
-3 -10 -16 -6 -13 3 -40 -9 -78 -37 -33 -22 -66 -41 -75 -41 -25 0 -17 25 13
37 27 11 27 11 -12 12 -31 1 -37 4 -32 17 6 15 0 16 -42 11 -28 -3 -54 -1 -59
4 -7 7 -16 -4 -29 -36 -23 -61 -38 -75 -80 -75 -27 0 -44 9 -73 38 -108 105
-140 122 -233 122 -31 0 -84 -7 -118 -16 -34 -8 -64 -13 -68 -10 -3 3 -14 -2
-24 -11 -12 -10 -33 -16 -56 -15 -20 0 -52 -4 -70 -10 -24 -7 -37 -7 -45 1 -6
6 -19 11 -29 11 -10 0 -18 4 -18 9 0 5 -8 12 -17 15 -10 3 -30 17 -45 31 -32
30 -33 29 -12 -13 18 -36 79 -88 123 -103 17 -6 31 -17 31 -24 0 -7 7 -18 15
-25 23 -19 19 -43 -6 -37 -17 5 -20 1 -17 -21 4 -32 24 -40 31 -11 3 11 10 18
16 14 15 -8 14 -27 -2 -49 -11 -15 -19 -16 -50 -8 -41 12 -47 2 -16 -26 15
-15 18 -26 13 -47 -4 -16 -3 -26 2 -23 5 3 23 -10 41 -28 37 -39 19 -47 -19
-9 -21 21 -34 25 -79 23 -30 -1 -61 -8 -71 -15 -14 -13 -18 -12 -26 4 -10 16
-12 15 -21 -10 -6 -16 -11 -32 -11 -37 0 -5 -9 -14 -20 -20 -14 -7 -20 -7 -20
0 0 5 7 10 16 10 8 0 12 4 9 10 -10 16 -45 -13 -53 -44 -4 -16 -14 -32 -21
-34 -9 -3 -11 2 -6 18 10 31 -3 76 -18 61 -6 -6 -19 -11 -29 -11 -14 0 -17 -5
-12 -24 3 -13 1 -27 -4 -30 -15 -9 -42 4 -42 20 0 25 -38 15 -76 -20 -42 -39
-54 -39 -46 -1 5 29 -12 33 -42 10 -11 -8 -28 -15 -38 -15 -10 0 -18 -4 -18
-10 0 -5 -9 -10 -20 -10 -11 0 -20 -4 -20 -9 0 -10 -56 -32 -63 -25 -2 3 -33
-23 -67 -56 -35 -34 -74 -69 -87 -77 -14 -9 -23 -25 -23 -40 0 -15 -14 -42
-32 -63 -56 -63 -68 -80 -68 -93 0 -7 -5 -18 -11 -24 -6 -6 -12 -26 -14 -44
-2 -19 -7 -69 -11 -112 -4 -43 -11 -80 -16 -83 -4 -3 -2 -12 6 -19 18 -19 64
1 68 30 4 27 38 33 38 7 0 -39 45 -35 61 4 9 25 33 32 44 14 12 -20 35 -10 35
14 0 27 24 56 46 56 8 0 14 -9 14 -20 0 -11 5 -20 10 -20 6 0 10 10 10 23 0
17 6 23 28 24 15 1 48 5 75 9 29 4 53 2 61 -5 7 -6 35 -14 62 -18 26 -3 59
-12 74 -20 22 -11 27 -11 42 10 15 20 17 20 24 4 4 -11 0 -25 -10 -36 -9 -10
-16 -35 -16 -60 0 -36 4 -43 28 -52 19 -7 38 -7 63 0 48 15 47 15 51 -16 l4
-28 13 30 c11 25 10 31 -5 42 -26 19 -94 17 -94 -3 0 -24 -24 -11 -31 17 -3
15 1 34 13 51 10 14 18 33 18 41 0 18 29 77 38 77 18 -1 32 -19 38 -49 7 -32
6 -34 -18 -28 -38 10 -54 -14 -33 -47 10 -14 21 -26 26 -26 11 0 39 66 39 92
0 10 8 21 18 24 9 3 24 9 33 14 24 13 162 -3 195 -22 5 -3 41 -2 79 3 43 6 91
5 125 -1 64 -11 176 -23 205 -21 11 1 52 4 91 7 40 3 88 1 108 -4 31 -9 37 -8
46 9 11 20 70 28 70 9 0 -20 37 -10 49 13 16 30 53 51 120 68 32 8 59 22 67
34 8 12 41 34 74 50 33 16 60 35 60 42 0 20 79 93 95 87 8 -3 17 -19 20 -35 6
-25 10 -28 31 -23 21 5 24 3 24 -20 0 -34 12 -33 33 4 10 17 25 30 34 30 12 0
14 -7 9 -38 -4 -20 -3 -32 1 -26 11 14 78 64 87 64 4 0 5 -9 1 -19 -7 -25 9
-35 34 -21 13 7 22 7 26 0 3 -5 19 -10 35 -10 37 0 60 -24 60 -61 0 -18 5 -29
14 -29 8 0 16 -6 19 -12 2 -7 2 10 -1 37 -4 46 -2 52 21 62 24 11 24 11 19
-34 -3 -29 -1 -48 7 -52 8 -5 4 -18 -13 -43 -13 -20 -22 -39 -19 -42 3 -3 -2
-8 -11 -12 -9 -3 -16 -12 -16 -18 0 -7 -9 -22 -20 -34 -12 -12 -16 -23 -10
-27 16 -10 11 -21 -15 -33 -18 -9 -25 -19 -25 -41 0 -18 -10 -41 -25 -57 -14
-15 -25 -37 -25 -50 0 -13 -7 -27 -17 -32 -9 -5 -17 -22 -19 -38 -6 -70 -27
-140 -45 -154 -13 -10 -27 -46 -40 -99 -16 -65 -27 -91 -50 -112 -16 -15 -32
-41 -35 -58 -4 -17 -13 -36 -20 -42 -8 -6 -14 -17 -14 -23 0 -6 -9 -17 -20
-24 -11 -7 -20 -19 -20 -28 0 -9 -11 -29 -24 -45 -19 -22 -25 -25 -30 -13 -8
20 -26 8 -26 -16 0 -26 -34 -34 -70 -17 l-29 15 -3 -42 c-3 -40 -4 -41 -48
-47 -25 -4 -51 -2 -57 3 -9 7 -18 6 -28 -2 -10 -9 -15 -9 -15 -1 0 15 -37 14
-43 -1 -2 -7 1 -20 6 -29 11 -18 3 -49 -13 -49 -6 0 -13 8 -17 18 -6 19 -72
82 -85 82 -4 0 -8 -15 -9 -32 0 -18 -3 -27 -6 -20 -2 6 -9 12 -15 12 -14 0
-47 42 -48 62 0 23 40 11 50 -16 5 -15 7 -10 6 21 0 23 -3 38 -6 33 -3 -5 -12
-5 -20 0 -23 15 -40 12 -41 -7 -1 -14 -2 -15 -5 -3 -3 9 -14 22 -26 29 -20 12
-21 12 -14 -20 3 -18 15 -41 26 -51 11 -10 20 -29 20 -41 -1 -20 -2 -20 -11
-4 -5 9 -16 17 -23 17 -8 0 -16 7 -20 15 -8 21 -36 19 -36 -3 0 -25 -41 -27
-47 -1 -3 10 -14 19 -24 19 -27 0 -25 -6 19 -55 15 -17 1 -59 -23 -69 -13 -4
-15 -13 -11 -32 5 -17 3 -23 -4 -19 -5 3 -10 15 -10 25 0 10 -7 25 -15 33 -8
8 -12 17 -9 20 3 3 -4 8 -15 12 -12 3 -21 13 -21 21 0 22 -14 16 -27 -11 -7
-17 -8 -25 -1 -25 6 0 3 -9 -8 -21 -10 -11 -20 -16 -22 -10 -5 16 -38 13 -52
-4 -7 -8 -21 -15 -32 -15 -10 0 -21 -7 -24 -15 -7 -18 -30 -20 -38 -2 -3 6 -3
-1 1 -18 l6 -30 -25 23 c-27 24 -43 29 -32 10 4 -7 -7 0 -24 16 -19 18 -37 26
-47 22 -9 -3 -13 -11 -10 -16 4 -6 4 -22 1 -36 -5 -20 -12 -25 -34 -23 -15 2
-40 -5 -55 -15 -22 -15 -33 -17 -50 -8 -65 31 -107 36 -125 14 -10 -13 -15
-14 -18 -4 -3 6 -17 12 -31 12 -14 0 -36 9 -51 20 -18 15 -28 17 -33 9 -4 -7
-12 -8 -20 -3 -8 5 -42 10 -75 11 -61 3 -104 17 -155 51 -78 52 -106 72 -125
90 -11 11 -30 23 -42 26 -12 4 -27 16 -32 27 -6 10 -17 19 -25 19 -8 0 -18 6
-22 13 -7 11 -45 38 -115 81 -19 11 -28 13 -28 5 0 -7 -3 -9 -7 -5 -5 4 -8 12
-8 16 0 5 -9 16 -20 23 -15 12 -17 18 -7 29 16 20 4 30 -20 17 -11 -6 -21 -9
-22 -7 -25 37 -36 60 -36 71 0 7 -20 24 -45 36 -47 24 -52 30 -34 48 16 16 -5
49 -39 61 -31 11 -44 42 -47 113 -1 20 -11 49 -23 64 -17 21 -20 30 -10 36 20
13 2 22 -20 10 -21 -11 -32 -6 -32 16 0 7 9 13 20 13 10 0 24 8 29 17 6 10 11
13 11 6 0 -6 8 -10 18 -8 9 2 23 4 31 4 11 1 10 6 -4 21 -14 15 -31 20 -72 20
-44 0 -53 3 -53 18 0 10 9 24 20 32 11 8 20 24 20 35 0 11 4 26 9 34 7 11 11
5 16 -22 4 -19 4 -40 0 -46 -8 -14 8 -14 21 -1 6 6 18 5 35 -4 21 -11 29 -11
44 0 18 14 18 14 -1 29 -10 8 -24 15 -31 15 -6 0 -15 9 -18 20 -3 11 -13 20
-21 20 -8 0 -14 6 -14 14 0 10 11 12 44 9 41 -5 45 -3 60 26 9 17 13 32 9 33
-5 0 -12 2 -18 3 -5 2 -16 3 -22 4 -7 0 -13 9 -13 19 0 11 -10 24 -22 31 -61
32 -73 42 -73 58 0 11 -9 19 -22 21 -22 3 -29 21 -24 59 1 6 -12 17 -28 24
-16 7 -28 16 -25 20 2 4 -6 9 -17 12 -12 3 -20 13 -19 24 4 37 -1 43 -41 49
-36 6 -40 10 -36 30 3 18 0 24 -14 24 -10 0 -21 -4 -24 -10 -11 -18 -35 -10
-36 13 -1 15 -3 17 -6 5 -3 -11 -12 -15 -31 -13 -15 2 -31 4 -36 4 -4 1 -5 8
-2 17 4 11 -1 18 -14 21 -13 4 -19 11 -15 22 3 11 -5 20 -25 29 -17 8 -30 18
-30 23 0 6 4 8 9 4 15 -8 24 13 17 41 -7 27 -26 33 -26 8 0 -11 -5 -14 -16
-10 -9 3 -22 6 -30 6 -8 0 -14 7 -14 15 0 20 -62 104 -77 104 -7 1 -13 8 -13
16 0 9 -9 15 -24 15 -20 0 -25 6 -30 43 -7 47 -46 97 -75 97 -11 0 -21 6 -24
14 -3 8 -18 16 -33 18 -21 2 -28 9 -29 28 -1 33 -86 151 -103 145 -17 -6 -72
48 -72 70 0 10 -27 43 -60 75 -33 32 -60 66 -60 76 0 25 -99 129 -134 140 -10
4 -31 18 -45 33 -14 14 -45 38 -69 54 -29 19 -42 34 -42 50 1 20 2 21 14 5 17
-23 26 -23 26 2 0 11 -7 20 -15 20 -8 0 -15 5 -15 11 0 7 12 10 30 7 26 -4 30
-1 30 18 0 16 -10 29 -30 39 -39 20 -54 11 -46 -27 5 -27 4 -29 -9 -18 -9 7
-13 20 -10 28 4 12 -57 128 -75 142 -4 3 -13 22 -21 43 -7 20 -17 37 -21 37
-4 0 -8 10 -8 23 0 31 -49 130 -50 100 0 -13 -4 -23 -9 -23 -19 0 -41 32 -41
61 0 22 5 29 20 29 23 0 27 18 5 26 -26 10 -43 -14 -40 -54 7 -74 20 -107 48
-120 29 -14 37 -42 12 -42 -8 0 -15 -4 -15 -10 0 -5 6 -10 14 -10 14 0 30 -80
18 -91 -4 -4 -34 -9 -67 -13 -68 -6 -210 -31 -222 -39 -5 -3 -15 -2 -23 3 -11
7 -11 11 0 24 11 14 10 20 -5 36 -10 11 -13 20 -7 20 7 0 12 7 12 15 0 8 6 12
14 9 20 -8 29 12 16 36 -6 12 -21 20 -36 20 -21 0 -23 3 -14 19 14 27 13 34
-4 28 -18 -7 -76 45 -76 67 0 12 -98 96 -113 96 -12 0 -90 81 -120 125 -57 85
-64 105 -81 255 -9 80 -30 199 -46 265 -46 192 -59 280 -65 445 -4 85 -11 176
-16 203 -5 26 -13 66 -18 90 -10 52 -56 143 -90 180 -30 32 -41 34 -41 9 0
-10 -5 -23 -11 -29 -22 -22 -21 -392 1 -378 4 3 10 -59 12 -138 3 -81 11 -165
20 -197 35 -126 60 -239 56 -256 -2 -11 -14 14 -27 56 -12 41 -36 116 -52 167
-16 50 -29 112 -29 136 0 25 -7 60 -15 78 l-14 34 -1 -32 c0 -18 -13 -60 -29
-95 -16 -35 -39 -90 -52 -123 -12 -33 -25 -64 -29 -70 -4 -5 -12 -37 -19 -70
-7 -33 -19 -76 -26 -95 -8 -19 -17 -56 -20 -82 -3 -26 -10 -50 -16 -53 -5 -4
-9 -19 -9 -36 0 -16 -4 -37 -10 -47 -23 -43 -39 -94 -55 -177 -9 -49 -21 -95
-25 -100 -5 -6 -18 -42 -28 -82 -11 -39 -25 -80 -31 -91 -6 -11 -11 -32 -11
-46 0 -14 -11 -55 -25 -92 -14 -36 -25 -79 -25 -95 0 -16 -6 -46 -14 -66 -7
-21 -18 -56 -24 -78 -6 -22 -15 -59 -21 -81 -6 -23 -11 -51 -11 -62 0 -12 -12
-56 -26 -99 -23 -68 -24 -79 -11 -87 13 -8 12 -12 -8 -28 -23 -18 -212 -118
-222 -118 -8 0 6 188 17 235 27 108 95 332 127 415 14 36 42 110 63 165 21 55
50 130 64 168 14 37 26 74 26 82 0 9 4 23 10 33 12 20 36 89 54 152 7 25 20
59 29 77 10 18 17 37 17 44 0 6 11 37 24 68 13 31 32 79 42 106 16 46 18 48
25 25 7 -29 14 -16 23 45 3 22 14 46 24 55 24 19 33 45 21 57 -6 6 -6 24 0 49
9 38 15 31 11 -13 -2 -29 16 -30 31 -1 9 16 9 23 0 26 -6 2 -11 15 -11 29 0
18 4 24 15 19 9 -3 15 0 15 9 0 8 6 15 13 16 9 0 9 2 0 6 -18 7 -16 43 1 43 8
0 22 7 30 16 12 12 14 20 5 35 -13 25 -5 49 17 49 13 0 14 3 5 14 -8 10 -8 21
-1 40 5 15 10 38 10 51 0 29 19 43 31 24 12 -19 13 93 6 781 -2 187 11 247 70
315 24 28 43 60 43 73 0 13 4 20 10 17 6 -3 10 -15 10 -26 0 -20 16 -29 87
-48 46 -13 145 -95 137 -114 -2 -7 6 -17 18 -22 13 -6 32 -27 44 -48 12 -21
25 -38 30 -36 5 1 14 -8 20 -20 l11 -22 7 23 c6 22 7 22 18 4 8 -15 8 -21 0
-24 -7 -2 -12 -10 -12 -17 0 -20 21 -30 31 -14 10 17 39 -14 97 -103 20 -31
60 -89 88 -130 48 -69 134 -206 134 -214 0 -1 13 -22 29 -46 15 -24 48 -75 73
-113 42 -64 63 -93 145 -194 16 -19 58 -66 94 -104 37 -39 78 -88 90 -110 13
-21 51 -74 84 -116 34 -42 76 -98 94 -125 22 -31 46 -53 70 -62 54 -22 94 -46
112 -68 22 -27 44 -102 69 -236 12 -63 31 -149 42 -190 11 -41 24 -88 28 -105
29 -111 96 -256 144 -313 56 -66 150 -131 202 -139 19 -3 39 -12 45 -19 6 -8
19 -14 28 -14 24 0 86 -24 105 -39 9 -8 19 -11 22 -8 3 3 15 -4 25 -14 17 -17
28 -19 65 -13 32 5 50 2 69 -10 14 -9 45 -16 72 -16 26 0 86 -6 133 -14 83
-13 408 -15 429 -2 5 3 62 6 128 7 88 0 132 5 175 20 31 10 81 22 112 25 30 4
53 11 50 15 -8 13 10 11 23 -2 9 -9 20 -9 40 -1 15 6 40 13 55 16 16 4 27 11
25 18 -1 6 15 20 36 31 20 11 37 26 37 33 0 8 6 11 14 8 8 -3 17 2 21 13 4 10
31 38 60 63 29 25 54 50 54 57 1 6 9 18 19 25 30 23 162 206 162 226 0 11 47
101 64 122 6 8 18 33 25 55 25 77 65 155 79 155 8 0 12 6 8 15 -6 16 12 65 25
65 4 0 9 15 12 33 13 89 51 237 70 277 20 41 26 45 75 56 51 11 55 10 85 -15
18 -14 34 -29 37 -32 3 -3 14 -9 25 -13 11 -3 26 -20 32 -37 7 -17 16 -29 20
-26 4 3 6 -16 4 -41 l-3 -47 33 41 c51 62 141 113 201 114 20 0 40 5 43 11 4
6 11 70 16 142 8 137 23 237 38 272 5 11 12 31 15 45 2 14 9 41 15 60 30 106
42 170 39 213 -2 26 1 48 5 50 9 3 31 146 24 153 -3 3 -21 -18 -41 -46 -20
-27 -42 -50 -50 -50 -7 0 -17 -14 -22 -31 -5 -18 -18 -37 -28 -43 -29 -16 -71
-67 -71 -85 0 -10 -7 -15 -18 -13 -10 2 -21 -7 -29 -23 -6 -14 -15 -25 -20
-25 -4 0 -8 -7 -8 -15 0 -8 -9 -19 -19 -25 -11 -5 -25 -16 -33 -23 -7 -7 -35
-24 -63 -38 -46 -22 -62 -24 -180 -23 -114 0 -142 4 -218 28 -132 42 -190 92
-221 189 -7 21 -28 22 -67 2 -16 -9 -35 -12 -42 -8 -15 10 -35 14 -69 15 -16
1 -28 5 -28 10 0 13 -30 9 -30 -4 0 -7 -8 -3 -18 8 -19 23 -105 49 -110 34 -4
-11 -55 -13 -66 -3 -3 4 -48 8 -99 8 -72 1 -99 6 -121 20 -23 15 -44 19 -98
16 -53 -2 -74 1 -88 14 -14 12 -35 15 -101 12 -62 -3 -87 0 -94 10 -14 18
-134 18 -146 0 -9 -12 -31 1 -24 14 13 20 -24 7 -65 -22 -37 -27 -52 -31 -116
-33 -41 -2 -74 -1 -74 1 0 2 7 15 16 29 9 13 15 27 12 29 -8 8 -102 -26 -122
-44 -12 -11 -38 -23 -59 -26 -21 -4 -43 -13 -50 -19 -11 -12 -57 -35 -138 -70
-52 -22 -148 -48 -189 -50 -19 -1 -52 -8 -72 -14 -21 -7 -55 -17 -75 -23 -38
-11 -144 -59 -153 -69 -3 -4 -18 -12 -35 -19 -36 -14 -85 -56 -85 -71 0 -6 14
-16 30 -21 17 -6 30 -18 30 -26 0 -12 6 -13 27 -8 44 13 78 11 76 -2 -2 -8 7
-13 22 -13 31 0 33 -15 3 -24 -158 -45 -263 -65 -307 -58 -20 3 -41 17 -60 41
-67 82 -111 141 -111 147 0 4 -7 16 -17 26 -15 16 -15 18 0 18 9 0 20 -8 26
-17 5 -10 13 -14 18 -9 4 5 2 11 -4 13 -7 3 -13 11 -13 19 0 8 -9 24 -20 37
-12 12 -27 29 -35 38 -8 9 -15 21 -15 27 0 7 -7 12 -15 12 -8 0 -15 3 -15 8 0
4 -15 24 -34 45 -22 25 -36 34 -41 27 -5 -8 -17 -1 -36 20 -16 17 -29 34 -29
38 0 4 -8 12 -18 18 -21 14 -132 174 -132 191 0 7 7 10 15 7 8 -4 15 -1 15 5
0 6 -9 11 -21 11 -17 0 -20 4 -15 24 3 14 1 28 -5 32 -8 5 -8 9 1 14 7 4 15
29 18 56 2 27 9 52 15 55 6 4 3 16 -7 30 -15 22 -14 24 4 44 23 25 18 64 -6
44 -20 -16 -37 -1 -29 28 3 15 2 22 -4 19 -14 -9 -25 14 -13 26 10 10 -16 110
-30 116 -5 2 -8 17 -8 34 0 28 2 29 30 23 29 -6 42 6 20 20 -6 4 -7 23 -4 44
7 42 -7 61 -31 41 -11 -10 -15 -7 -20 13 -4 14 -2 34 4 45 7 14 8 23 1 27 -18
11 -29 -5 -24 -34 6 -31 -21 -85 -37 -75 -6 3 -7 30 -3 62 9 80 10 195 2 208
-11 16 13 86 40 116 21 23 23 32 17 65 -4 21 -10 31 -12 23 -3 -8 -11 -29 -19
-47 -8 -17 -14 -38 -14 -46 0 -8 -11 -17 -24 -19 -19 -4 -22 -1 -18 16 3 12
12 29 20 39 8 9 12 20 9 24 -4 3 1 15 10 25 14 16 15 23 5 39 -7 11 -10 24 -7
29 4 6 9 49 12 98 3 48 8 92 12 97 4 6 8 32 9 58 1 41 7 54 38 87 20 21 42 36
49 34 7 -3 16 -1 20 5 3 6 16 9 29 5 14 -3 27 1 36 11 12 15 12 16 -6 13 -22
-3 -22 3 -2 76 14 51 38 74 38 37 0 -14 6 -21 20 -21 21 0 28 -24 10 -35 -5
-3 -10 -13 -10 -21 0 -8 5 -14 10 -14 6 0 10 7 10 16 0 9 9 27 20 41 11 14 20
32 20 39 0 8 5 14 10 14 6 0 10 -7 10 -15 0 -8 5 -15 10 -15 6 0 11 7 11 15 3
31 4 34 22 47 13 10 20 30 22 63 4 60 13 85 31 85 19 0 34 33 34 74 0 20 3 36
8 36 4 0 12 10 17 23 8 18 16 21 48 19 32 -3 39 0 44 18 4 13 8 17 13 11 4 -8
15 -5 33 9 15 12 30 19 35 16 4 -2 35 -1 69 3 65 8 93 0 93 -24 0 -20 9 -19
28 4 20 23 62 37 62 21 0 -7 7 -7 23 1 13 8 69 13 142 14 66 0 127 5 135 10
30 19 92 24 123 11 11 -6 17 -4 17 5 0 8 11 19 25 26 22 10 25 9 25 -8 0 -12
7 -19 19 -19 30 0 51 11 51 27 0 9 8 13 23 12 12 -2 28 0 34 4 7 4 22 3 33 -3
19 -10 70 -4 70 9 0 11 65 32 111 36 22 3 57 9 76 14 20 6 40 8 45 5 4 -3 8 2
8 10 0 11 -6 13 -29 6 -22 -6 -31 -5 -35 6 -9 22 25 31 92 25 54 -6 62 -5 62
10 0 18 24 42 33 33 3 -3 3 -12 0 -20 -6 -17 9 -18 25 -2 9 9 13 7 18 -5 8
-21 33 -22 40 -2 4 8 14 15 23 15 10 0 21 3 25 7 3 4 14 8 24 9 9 2 37 8 62
14 34 9 50 8 68 -1 19 -11 27 -11 45 0 19 12 23 11 35 -8 8 -11 22 -21 32 -21
10 0 24 -10 33 -22 14 -21 16 -22 29 -7 18 23 51 29 67 12 8 -9 20 -11 30 -7
9 4 28 8 42 9 14 1 31 5 38 9 6 4 19 5 28 2 14 -6 14 -8 -1 -24 -13 -15 -14
-21 -3 -36 12 -16 14 -15 36 8 15 16 28 22 35 17 22 -17 55 -18 76 -4 16 11
24 12 35 3 9 -7 15 -8 20 0 8 14 45 13 45 -1 0 -8 5 -8 15 1 8 7 15 17 15 22
0 6 -6 6 -14 -1 -11 -10 -16 -8 -21 8 -10 32 4 45 25 26 10 -9 24 -14 29 -10
6 3 11 1 11 -6 0 -10 3 -10 12 -1 17 17 26 15 33 -9 5 -14 13 -19 25 -16 11 3
21 -1 24 -10 5 -11 10 -12 28 -1 13 6 33 12 45 12 12 1 28 7 35 14 17 17 24
15 42 -13 16 -25 16 -28 -3 -59 -26 -42 -26 -43 2 -48 20 -4 27 2 41 35 14 33
20 38 39 32 24 -7 35 -8 83 -2 39 5 54 14 54 34 0 11 5 9 19 -8 l20 -24 43 48
c49 53 68 59 68 21 0 -27 34 -63 60 -64 9 0 26 7 38 16 19 13 21 21 16 54 -5
31 -3 41 9 46 23 8 69 -26 64 -47 -5 -20 9 -47 19 -36 4 4 7 22 7 40 0 19 8
41 20 55 18 19 19 26 9 42 -15 25 -15 30 2 30 8 0 17 -12 22 -27 8 -32 8 -31
-1 -60 -5 -19 -2 -23 14 -23 12 0 21 5 21 11 0 5 5 7 11 4 17 -11 79 5 79 20
0 7 -5 15 -12 17 -7 3 -12 20 -11 41 1 34 -1 36 -36 40 l-36 4 40 1 c31 2 43
-3 53 -18 14 -24 32 -26 32 -5 0 24 18 17 22 -7 6 -43 61 -26 81 25 8 22 33
22 46 0 8 -15 13 -16 30 -5 12 7 21 8 21 3 0 -11 35 -25 70 -27 24 -1 86 24
65 26 -16 2 118 48 142 49 12 1 29 -6 37 -15z m-1874 -19 c0 -8 -4 -15 -10
-15 -5 0 -7 7 -4 15 4 8 8 15 10 15 2 0 4 -7 4 -15z m70 -1 c0 -3 -6 -12 -14
-20 -16 -15 -32 -2 -21 16 7 11 35 14 35 4z m1160 -4 c0 -5 -5 -10 -11 -10 -5
0 -7 5 -4 10 3 6 8 10 11 10 2 0 4 -4 4 -10z m-3830 -40 c0 -5 -4 -10 -10 -10
-5 0 -10 5 -10 10 0 6 5 10 10 10 6 0 10 -4 10 -10z m3660 -15 c0 -8 -4 -15
-10 -15 -5 0 -10 7 -10 15 0 8 5 15 10 15 6 0 10 -7 10 -15z m230 -16 c0 -11
-7 -19 -16 -19 -11 0 -14 5 -10 16 3 9 6 20 6 25 0 6 5 7 10 4 6 -3 10 -15 10
-26z m-837 -20 c-3 -10 -12 -19 -19 -19 -17 0 -18 14 -2 40 14 22 28 8 21 -21z
m537 16 c0 -8 -4 -15 -10 -15 -5 0 -10 7 -10 15 0 8 5 15 10 15 6 0 10 -7 10
-15z m-604 -9 c9 -10 11 -17 4 -21 -12 -7 -40 12 -40 26 0 14 20 11 36 -5z
m-4006 -17 c0 -5 -7 -9 -15 -9 -15 0 -20 12 -9 23 8 8 24 -1 24 -14z m5930 1
c-12 -22 -18 -24 -40 -10 -13 9 -13 11 0 20 8 5 23 10 33 10 15 0 16 -3 7 -20z
m-8788 -2 c-9 -9 -15 -9 -24 0 -9 9 -7 12 12 12 19 0 21 -3 12 -12z m8858 -8
c-6 -11 -12 -20 -14 -20 -2 0 -6 9 -9 20 -4 15 0 20 14 20 17 0 18 -3 9 -20z
m-1380 -25 c0 -25 4 -35 15 -35 13 0 14 -4 4 -21 -11 -21 -11 -21 -25 6 -16
31 -19 85 -4 85 6 0 10 -16 10 -35z m-1140 5 c0 -5 -4 -10 -10 -10 -5 0 -10 5
-10 10 0 6 5 10 10 10 6 0 10 -4 10 -10z m770 -32 c0 -5 -4 -8 -10 -8 -5 0
-10 10 -10 23 0 18 2 19 10 7 5 -8 10 -18 10 -22z m180 12 c0 -12 -28 -25 -36
-17 -9 9 6 27 22 27 8 0 14 -5 14 -10z m-110 -10 c0 -5 -5 -10 -11 -10 -5 0
-7 5 -4 10 3 6 8 10 11 10 2 0 4 -4 4 -10z m-4996 -165 c-23 -17 -68 -20 -58
-4 3 6 20 17 38 24 35 15 49 2 20 -20z m7991 -146 c96 -16 125 -32 125 -69 0
-17 -5 -30 -12 -30 -7 0 -42 -5 -78 -10 -92 -14 -266 -13 -325 2 -115 29 -39
96 133 118 31 4 64 6 72 4 8 -2 47 -8 85 -15z m1852 -19 c117 -10 153 -20 153
-46 0 -19 -29 -31 -129 -49 -137 -25 -332 -14 -345 20 -6 18 22 55 42 56 9 0
40 9 67 19 28 10 61 16 75 14 14 -2 76 -8 137 -14z m-2947 -20 c0 -5 -9 -10
-21 -10 -11 0 -17 5 -14 10 3 6 13 10 21 10 8 0 14 -4 14 -10z m16 -55 c10
-24 -3 -44 -24 -38 -20 5 -35 36 -24 47 11 12 43 6 48 -9z m1389 5 c4 -7 -6
-10 -25 -8 -41 3 -50 18 -11 18 16 0 33 -5 36 -10z m145 0 c-19 -12 -97 -13
-105 -1 -3 5 22 10 57 10 43 0 58 -3 48 -9z m-1689 -50 c5 0 9 -7 9 -15 0 -8
-8 -15 -17 -15 -14 0 -15 -2 -4 -9 7 -5 9 -11 4 -14 -5 -3 -15 -2 -22 2 -7 5
-23 6 -34 3 -20 -5 -20 -5 2 27 15 20 29 30 38 27 8 -3 19 -6 24 -6z m-7156
-31 c6 -19 8 -19 30 -5 13 9 26 12 30 7 3 -5 1 -12 -4 -16 -17 -10 -1 -32 30
-46 22 -8 28 -16 23 -28 -18 -45 -16 -52 41 -106 31 -30 63 -55 71 -55 10 0
13 -7 8 -25 -4 -18 -1 -27 10 -31 9 -3 16 -13 16 -21 0 -9 13 -31 30 -49 16
-19 33 -46 36 -59 3 -14 10 -25 16 -25 5 0 18 -20 29 -45 11 -25 25 -45 32
-46 18 0 61 -59 62 -85 1 -12 15 -38 32 -58 17 -19 34 -45 38 -58 11 -38 35
-88 43 -88 4 0 12 -8 17 -19 6 -10 21 -38 35 -62 13 -24 23 -47 22 -51 -1 -5
2 -8 8 -8 14 0 42 -58 34 -71 -3 -6 3 -13 15 -16 14 -4 21 -13 21 -30 0 -15
10 -33 25 -45 24 -19 25 -24 19 -80 -6 -55 -5 -60 15 -65 15 -4 21 -12 19 -27
-2 -11 3 -21 10 -22 6 -1 17 -2 22 -3 6 0 10 -12 10 -25 0 -14 5 -28 10 -31 6
-3 10 -17 10 -30 0 -13 6 -26 13 -28 9 -4 9 -7 -1 -15 -10 -7 -10 -11 3 -22 8
-7 15 -10 15 -7 0 4 10 -4 23 -16 16 -15 21 -27 15 -39 -4 -9 -8 -42 -8 -72 0
-44 -3 -54 -14 -50 -8 3 -17 17 -21 32 -3 14 -54 121 -111 236 -107 215 -122
244 -161 306 -12 19 -38 67 -57 105 -20 39 -60 109 -89 156 -28 48 -79 131
-111 185 -74 123 -245 377 -395 585 -23 31 -41 60 -41 63 0 7 38 24 57 25 6 1
15 -8 18 -20z m2379 -24 c-6 -36 3 -44 24 -23 9 9 12 6 12 -14 0 -28 -21 -43
-38 -26 -8 8 -13 7 -17 -5 -15 -49 -19 -52 -23 -23 -2 16 1 33 7 39 6 6 11 17
11 23 0 18 18 64 25 64 3 0 3 -16 -1 -35z m4846 14 c0 -5 -4 -8 -9 -4 -5 3
-12 1 -16 -4 -3 -6 -13 -7 -23 -4 -14 6 -13 8 8 14 37 10 40 10 40 -2z m100
-9 c-19 -13 -30 -13 -30 0 0 6 10 10 23 10 18 0 19 -2 7 -10z m-185 -39 c3 -5
1 -12 -5 -16 -5 -3 -10 1 -10 9 0 18 6 21 15 7z m55 -1 c0 -5 -5 -10 -11 -10
-5 0 -7 5 -4 10 3 6 8 10 11 10 2 0 4 -4 4 -10z m-7232 -76 c48 -62 287 -416
331 -489 10 -16 36 -59 57 -95 22 -36 50 -83 61 -105 12 -22 35 -65 53 -95 55
-97 155 -318 148 -326 -5 -4 -109 169 -157 261 -37 71 -173 295 -252 415 -31
47 -73 112 -95 145 -21 33 -69 102 -106 153 -90 122 -131 189 -123 202 12 19
29 6 83 -66z m7340 64 c8 -8 15 -8 27 2 12 10 15 10 15 -4 0 -9 -8 -16 -20
-16 -11 0 -20 -7 -20 -15 0 -14 -3 -13 -24 2 -17 13 -21 21 -14 31 13 15 21
15 36 0z m-5568 -49 c0 -5 -4 -9 -10 -9 -5 0 -10 7 -10 16 0 8 5 12 10 9 6 -3
10 -10 10 -16z m5457 -55 c-3 -3 -12 -4 -19 -1 -8 3 -5 6 6 6 11 1 17 -2 13
-5z m153 -4 c0 -5 -4 -10 -9 -10 -6 0 -13 5 -16 10 -3 6 1 10 9 10 9 0 16 -4
16 -10z m-5180 -35 c0 -32 -24 -79 -48 -97 -22 -16 -62 -99 -62 -129 0 -27
-24 -19 -28 9 -2 12 -8 22 -13 22 -5 0 -9 7 -9 15 0 8 3 14 8 13 17 -3 42 16
42 33 0 15 -6 17 -40 13 -45 -5 -49 2 -20 39 11 14 19 31 18 38 -4 17 68 32
93 18 17 -9 21 -6 30 20 13 38 29 40 29 6z m5156 -6 c3 -6 19 -9 35 -7 20 3
29 0 29 -9 0 -8 -4 -11 -10 -8 -5 3 -8 0 -5 -7 2 -7 -7 -21 -20 -31 -25 -18
-25 -18 -35 7 -5 15 -16 26 -25 26 -13 0 -13 3 -3 20 14 23 24 25 34 9z
m-5596 -24 c0 -8 -4 -15 -9 -15 -13 0 -22 16 -14 24 11 11 23 6 23 -9z m480
-20 c0 -8 -4 -15 -9 -15 -5 0 -11 7 -15 15 -3 9 0 15 9 15 8 0 15 -7 15 -15z
m-470 -45 c9 -16 8 -20 -5 -20 -8 0 -15 9 -15 20 0 11 2 20 5 20 2 0 9 -9 15
-20z m108 13 c-32 -68 -43 -77 -55 -47 -4 11 2 23 18 35 25 19 43 25 37 12z
m97 -34 c5 -22 3 -36 -9 -47 -25 -25 -37 -4 -23 41 14 45 23 47 32 6z m-60
-30 c4 -18 3 -35 -4 -42 -8 -8 -11 -4 -11 15 0 15 -3 33 -6 42 -3 9 -2 16 4
16 6 0 13 -14 17 -31z m5391 -65 c-3 -9 -6 -25 -6 -37 0 -28 -47 -52 -67 -35
-11 9 -11 14 2 28 8 9 15 20 15 25 0 11 32 34 49 35 8 0 11 -6 7 -16z m-5361
-59 c0 -13 -6 -19 -18 -18 -11 0 -23 -9 -29 -23 -6 -13 -15 -24 -20 -24 -11 0
-10 17 2 25 6 3 10 18 10 34 0 23 4 27 28 26 20 0 27 -5 27 -20z m75 10 c-7
-8 -16 -15 -21 -15 -5 0 -9 7 -9 15 0 9 9 15 21 15 18 0 19 -2 9 -15z m-2440
-52 c-17 -26 -30 -55 -30 -65 0 -10 -4 -18 -10 -18 -14 0 -13 5 15 64 26 56
34 66 46 66 5 0 -5 -21 -21 -47z m2383 -15 c24 -14 37 -28 37 -42 0 -6 -5 -5
-12 2 -9 9 -16 8 -30 -5 -22 -19 -26 -16 -34 25 -7 35 2 40 39 20z m87 -11 c0
-20 -27 -53 -36 -44 -4 4 -3 12 3 18 6 6 9 18 6 25 -3 8 1 14 11 14 9 0 16 -6
16 -13z m-153 -79 c-3 -7 -5 -2 -5 12 0 14 2 19 5 13 2 -7 2 -19 0 -25z m97
-6 c-1 -7 -2 -28 -2 -48 -1 -22 -6 -33 -13 -29 -6 4 -17 -1 -24 -11 -11 -15
-14 -16 -14 -4 0 8 6 24 14 34 8 11 15 33 15 49 0 18 4 27 13 25 6 -3 12 -10
11 -16z m-2474 -2 c0 -5 -4 -10 -9 -10 -5 0 -13 -9 -16 -21 -4 -11 -9 -18 -13
-15 -7 8 19 56 30 56 4 0 8 -4 8 -10z m2540 -24 c0 -21 -11 -46 -20 -46 -5 0
-8 14 -8 30 1 30 28 45 28 16z m-569 -39 c-8 -8 -11 -7 -11 4 0 20 13 34 18
19 3 -7 -1 -17 -7 -23z m439 -3 c0 -14 -12 -19 -23 -8 -9 9 4 35 14 28 5 -3 9
-12 9 -20z m-59 -24 c3 -19 9 -42 13 -51 4 -10 2 -20 -4 -24 -8 -5 -8 -11 1
-21 6 -8 9 -17 6 -20 -13 -13 -25 9 -36 67 -7 33 -15 68 -18 76 -4 11 0 14 13
11 12 -2 21 -15 25 -38z m-2401 23 c-1 -13 -39 -79 -40 -69 0 18 24 76 32 76
4 0 8 -3 8 -7z m2236 -1 c17 -11 36 -51 29 -63 -4 -5 -2 -16 4 -23 7 -8 11
-18 10 -22 -1 -5 1 -21 5 -36 7 -25 3 -45 -19 -100 -6 -14 -2 -18 18 -18 28 0
39 -31 30 -87 -3 -19 0 -39 7 -48 7 -8 9 -15 5 -15 -5 0 -6 -3 -2 -6 3 -3 16
4 29 15 20 20 24 20 34 6 8 -10 14 -12 19 -6 9 16 45 13 45 -4 0 -7 -7 -18
-16 -23 -12 -7 -15 -17 -9 -41 8 -36 28 -37 33 0 5 36 19 44 32 19 10 -18 9
-24 -6 -35 -17 -12 -16 -13 5 -20 20 -6 22 -12 16 -41 -5 -27 -3 -34 10 -34
15 0 17 -11 19 -84 1 -37 19 -44 39 -15 15 21 16 21 25 -15 6 -19 8 -45 5 -56
-3 -12 2 -28 11 -39 13 -15 14 -24 6 -46 -8 -20 -7 -31 1 -42 10 -11 14 -11
20 -1 12 19 11 72 -2 85 -15 15 -7 56 11 60 12 4 12 3 1 -5 -9 -7 -10 -12 -2
-16 6 -4 11 -15 11 -24 0 -10 10 -22 23 -27 17 -8 21 -17 19 -41 -2 -19 3 -38
13 -48 9 -8 19 -32 22 -51 4 -28 2 -35 -11 -35 -9 0 -16 -4 -16 -10 0 -5 -7
-10 -15 -10 -21 0 -19 37 2 49 15 8 16 12 3 38 l-14 28 -4 -25 c-7 -47 -21
-47 -63 0 -21 24 -39 49 -40 55 0 5 -5 -1 -10 -15 -8 -19 -6 -27 5 -36 9 -6
16 -19 16 -30 0 -14 -7 -11 -35 16 -19 19 -35 38 -35 43 0 4 -9 16 -21 28 -16
16 -18 23 -9 34 18 22 -17 68 -48 62 -22 -4 -23 -2 -17 29 4 25 3 32 -7 29
-14 -6 -42 41 -52 88 -4 15 -11 27 -16 27 -6 0 -10 7 -10 15 0 8 -4 23 -9 33
-5 9 -12 26 -16 37 -5 16 -8 17 -15 5 -5 -8 -5 -21 1 -31 5 -10 9 -27 9 -38 0
-12 5 -21 10 -21 11 0 14 -43 4 -53 -12 -12 -34 6 -34 28 0 12 -13 42 -30 66
-31 45 -37 73 -20 84 6 3 10 -3 10 -15 0 -12 4 -19 9 -15 9 5 3 114 -6 125 -3
3 -10 -2 -16 -11 -7 -8 -22 -18 -34 -21 -19 -5 -23 -2 -23 19 0 13 4 21 10 18
6 -3 10 -2 10 3 0 6 -7 12 -15 16 -19 7 -20 36 -1 36 20 0 26 12 19 38 -3 15
-13 22 -29 22 -28 0 -40 22 -49 93 -3 26 -10 47 -15 47 -5 0 -7 7 -4 15 8 19
24 9 24 -14 0 -9 11 -32 25 -51 17 -23 23 -41 19 -54 -6 -18 -5 -19 9 -8 16
14 15 45 -3 67 -5 6 -8 25 -5 41 16 100 31 126 61 106z m344 -47 c0 -2 -9 -9
-20 -15 -16 -9 -18 -8 -14 5 5 13 34 22 34 10z m-2634 -72 c-11 -11 -17 4 -9
23 7 18 8 18 11 1 2 -10 1 -21 -2 -24z m2407 -26 c-9 -14 -23 4 -23 31 l1 27
13 -25 c8 -14 12 -28 9 -33z m147 17 c0 -20 4 -25 22 -22 15 2 24 -3 26 -14 2
-11 -3 -18 -12 -18 -17 0 -19 -8 -16 -52 1 -19 -3 -28 -13 -28 -10 0 -13 7
-10 20 3 11 1 26 -5 33 -14 16 -26 83 -17 96 11 20 25 12 25 -15z m-133 -65
c-14 -8 -22 -8 -30 0 -8 8 -3 11 19 11 25 -1 27 -2 11 -11z m-407 -57 c0 -4
-4 -12 -9 -17 -5 -6 -11 -21 -14 -35 -3 -19 -5 -16 -6 11 0 20 2 39 6 42 9 10
23 9 23 -1z m410 -46 c0 -8 -4 -17 -9 -21 -12 -7 -24 12 -16 25 9 15 25 12 25
-4z m183 -26 c3 -12 0 -20 -8 -20 -8 0 -11 8 -8 20 3 11 7 20 8 20 1 0 5 -9 8
-20z m-636 -73 c-10 -45 -27 -65 -27 -32 0 19 29 90 34 84 3 -2 -1 -25 -7 -52z
m590 -2 c-17 -17 -37 -20 -37 -6 0 13 44 40 48 30 2 -5 -3 -16 -11 -24z m83
-2 c0 -7 -4 -13 -10 -13 -5 0 -10 12 -10 28 0 21 2 24 10 12 5 -8 10 -21 10
-27z m-355 -124 c8 -23 1 -34 -14 -24 -13 8 -15 45 -2 45 5 0 13 -9 16 -21z
m345 -119 c0 -5 -4 -10 -10 -10 -5 0 -10 5 -10 10 0 6 5 10 10 10 6 0 10 -4
10 -10z m-291 -59 c6 -22 8 -47 5 -56 -5 -11 -1 -21 9 -27 22 -12 22 -57 1
-65 -24 -9 -31 11 -28 78 2 44 -1 59 -12 59 -8 0 -12 10 -11 29 3 38 21 29 36
-18z m71 -2 c0 -5 -4 -9 -10 -9 -5 0 -10 7 -10 16 0 8 5 12 10 9 6 -3 10 -10
10 -16z m340 -370 c0 -6 -4 -7 -10 -4 -5 3 -10 11 -10 16 0 6 5 7 10 4 6 -3
10 -11 10 -16z m30 -40 c0 -6 -4 -7 -10 -4 -5 3 -10 11 -10 16 0 6 5 7 10 4 6
-3 10 -11 10 -16z m-1245 -79 c17 -19 17 -23 2 -54 -10 -22 -14 -47 -10 -69 3
-20 1 -37 -6 -41 -6 -4 -11 -16 -11 -27 0 -11 -7 -22 -15 -25 -8 -4 -15 -12
-15 -19 0 -17 27 -27 34 -12 2 7 5 5 5 -5 1 -9 -6 -24 -15 -32 -8 -9 -14 -24
-13 -33 3 -34 -1 -41 -19 -36 -16 4 -18 -3 -16 -61 1 -42 -3 -69 -11 -76 -7
-6 -11 -29 -10 -56 1 -31 -4 -51 -14 -61 -33 -33 -51 -69 -51 -105 0 -20 -5
-40 -11 -43 -6 -4 -8 -13 -5 -21 3 -8 0 -13 -6 -11 -7 1 -14 -7 -16 -18 -2
-11 -9 -23 -16 -27 -8 -6 -8 -13 1 -27 13 -21 7 -55 -7 -46 -13 8 -40 -6 -40
-21 0 -14 -20 -55 -31 -64 -3 -3 -9 -21 -13 -41 -3 -20 -18 -49 -32 -65 -31
-35 -44 -66 -44 -105 0 -16 -4 -29 -10 -29 -5 0 -10 -20 -10 -44 0 -45 -24
-116 -39 -116 -10 0 -9 -50 2 -67 5 -8 4 -13 -2 -13 -6 0 -11 -18 -11 -40 0
-40 -28 -94 -58 -113 -7 -5 -10 -13 -6 -19 4 -7 9 -6 15 3 4 7 11 10 14 7 12
-12 -6 -28 -31 -28 -13 0 -24 -4 -24 -10 0 -5 10 -10 22 -10 21 0 21 0 2 -15
-17 -13 -17 -14 -1 -15 13 0 15 -4 8 -17 -15 -29 -55 -176 -53 -198 1 -11 -2
-22 -6 -25 -4 -3 -17 -24 -29 -47 -15 -29 -18 -43 -10 -47 9 -3 8 -7 -2 -14
-7 -5 -11 -14 -8 -18 6 -11 -51 -264 -72 -318 -6 -16 -10 -31 -7 -33 2 -3 -9
-29 -25 -59 -15 -30 -31 -71 -35 -92 -3 -20 -15 -44 -26 -53 -18 -14 -19 -17
-4 -32 15 -14 14 -17 -9 -35 -14 -11 -25 -30 -25 -42 0 -13 -11 -38 -25 -56
-16 -21 -21 -34 -13 -36 30 -10 -8 -36 -88 -61 -49 -15 -103 -32 -120 -37 -17
-6 -41 -10 -55 -9 -15 0 -4 6 26 14 28 8 54 14 58 15 14 0 34 63 41 130 9 81
104 445 140 540 8 19 33 96 56 170 24 74 47 139 51 144 5 6 9 17 9 25 0 9 19
66 41 126 23 61 53 144 66 185 13 41 30 89 37 105 7 17 32 86 55 155 76 225
128 372 191 540 60 164 75 203 143 375 20 50 47 122 62 160 60 160 112 275
125 275 4 0 15 -9 25 -20z m8611 -287 c-10 -10 -19 5 -10 18 6 11 8 11 12 0 2
-7 1 -15 -2 -18z m19 -23 c3 -5 1 -10 -4 -10 -6 0 -11 5 -11 10 0 6 2 10 4 10
3 0 8 -4 11 -10z m-7071 -21 c-6 -11 -24 -2 -24 11 0 5 7 7 15 4 8 -4 12 -10
9 -15z m-1243 -172 c-8 -8 -11 -5 -11 9 0 27 14 41 18 19 2 -9 -1 -22 -7 -28z
m1230 -159 c7 -13 6 -18 -4 -18 -8 0 -17 8 -21 18 -3 9 -9 24 -13 32 -5 13 -4
13 11 1 9 -8 22 -23 27 -33z m4809 -267 c0 -11 -4 -23 -10 -26 -6 -4 -10 5
-10 19 0 14 5 26 10 26 6 0 10 -9 10 -19z m896 -103 c-3 -13 -6 -26 -6 -30 0
-5 -7 -8 -15 -8 -10 0 -15 10 -15 30 0 24 4 30 21 30 17 0 20 -4 15 -22z m123
-40 c10 -25 -3 -48 -25 -48 -9 0 -14 12 -14 35 0 41 25 49 39 13z m-1073 -683
c-6 -30 -10 -34 -22 -25 -19 16 -18 30 4 50 23 23 26 18 18 -25z m94 10 c0
-18 14 -19 42 -4 25 13 31 8 23 -23 -5 -20 -11 -24 -30 -20 -19 3 -25 -1 -31
-23 -4 -17 -11 -24 -21 -21 -8 3 -21 6 -29 6 -8 0 -14 9 -14 19 0 11 -6 22
-12 25 -7 3 6 3 30 0 27 -4 42 -2 42 5 0 6 -4 11 -10 11 -5 0 -10 9 -10 20 0
11 5 20 10 20 6 0 10 -7 10 -15z m-4946 -468 c10 -7 17 -21 15 -30 -4 -16 -6
-16 -26 -2 -13 9 -23 23 -23 31 0 18 11 18 34 1z m-41 -45 c10 -10 14 -21 11
-24 -10 -11 -59 9 -62 25 -5 23 30 22 51 -1z m27 -147 c0 -8 -6 -15 -14 -15
-20 0 -29 17 -14 23 22 9 28 7 28 -8z m97 -17 c13 -12 23 -25 23 -30 0 -14
-28 -9 -44 8 -16 16 -22 44 -9 44 4 0 17 -10 30 -22z m6053 -14 c0 -14 -3 -14
-15 -4 -8 7 -15 14 -15 16 0 2 7 4 15 4 8 0 15 -7 15 -16z m-230 2 c0 -3 -4
-8 -10 -11 -5 -3 -10 -1 -10 4 0 6 5 11 10 11 6 0 10 -2 10 -4z m450 0 c0 -11
-19 -15 -25 -6 -3 5 1 10 9 10 9 0 16 -2 16 -4z m-341 -22 c22 -5 31 -12 31
-26 0 -14 5 -18 15 -14 8 3 15 1 15 -4 0 -6 -5 -10 -11 -10 -5 0 -8 -4 -5 -9
8 -12 66 -20 66 -9 0 4 14 8 30 8 45 0 74 -37 90 -115 8 -36 20 -71 27 -77 7
-6 13 -18 13 -28 0 -22 46 -126 59 -135 6 -3 25 -36 43 -72 18 -36 43 -76 56
-90 12 -13 22 -35 22 -49 0 -14 11 -36 25 -50 14 -14 25 -34 25 -44 0 -12 13
-26 31 -35 24 -13 28 -19 19 -30 -8 -10 -8 -14 1 -17 6 -2 13 -18 15 -36 3
-27 -1 -34 -27 -47 -16 -9 -27 -20 -24 -25 3 -6 -1 -7 -9 -4 -9 3 -24 3 -33 0
-15 -6 -15 -8 -3 -16 27 -16 -31 -30 -61 -14 -19 9 -29 10 -37 2 -8 -8 -19 -7
-41 2 -25 10 -41 9 -95 -4 -39 -10 -76 -14 -93 -9 -29 7 -38 8 -84 11 -18 1
-29 9 -32 23 -4 16 -11 20 -23 15 -22 -8 -84 23 -84 42 0 7 -8 24 -17 38 -15
24 -18 25 -29 9 -11 -15 -14 -14 -29 14 -13 26 -21 31 -53 31 -26 0 -33 3 -22
9 8 6 17 8 21 5 4 -2 10 0 14 6 12 20 -5 27 -47 20 -29 -6 -45 -5 -50 3 -13
20 -9 26 20 30 26 4 26 4 -4 6 -25 1 -33 6 -38 26 -4 15 -11 23 -17 19 -15 -9
-30 17 -23 39 3 10 -1 19 -10 23 -9 3 -14 10 -11 14 3 4 -7 15 -20 24 -22 15
-25 22 -19 52 6 30 4 36 -15 41 -21 5 -30 23 -11 23 6 0 10 5 10 11 0 6 -8 8
-19 4 -14 -4 -23 2 -34 24 l-15 29 45 7 c28 4 46 12 50 23 3 9 15 27 26 39 22
25 14 47 -13 38 -25 -8 -60 11 -60 31 0 12 6 15 24 10 16 -4 26 -1 30 9 3 9
19 15 41 15 28 0 35 4 35 20 0 18 11 25 34 21 5 -1 6 5 2 14 -3 9 1 18 9 21 8
4 15 15 15 25 0 12 9 21 25 25 25 6 35 24 14 24 -5 0 -7 5 -4 10 4 6 16 8 26
5 11 -4 26 -1 34 5 8 6 19 9 25 5 5 -3 10 -2 10 4 0 17 75 25 129 15z m-5819
-39 c0 -14 -4 -25 -10 -25 -5 0 -10 11 -10 25 0 14 5 25 10 25 6 0 10 -11 10
-25z m-203 -22 c-21 -22 -32 -11 -17 17 9 16 15 19 23 11 8 -8 7 -16 -6 -28z
m6179 9 c-22 -5 -30 3 -21 18 5 8 11 7 22 -2 15 -12 14 -13 -1 -16z m-6215
-22 c-3 -33 -2 -34 15 -19 13 10 29 13 49 10 35 -7 41 -34 8 -39 -13 -2 -23
-8 -23 -13 0 -6 -8 -5 -20 1 -17 9 -20 8 -20 -7 0 -35 16 -44 87 -47 70 -4
118 -21 142 -50 14 -16 15 -15 -34 -31 -8 -2 -15 -15 -15 -29 0 -19 7 -26 29
-31 39 -8 69 -41 53 -57 -9 -9 -15 -9 -24 0 -16 16 -28 15 -28 -2 0 -8 10 -22
22 -30 l22 -16 -22 0 c-12 0 -25 6 -27 13 -20 57 -27 70 -33 62 -4 -6 -19 -16
-34 -24 -33 -17 -34 -23 -11 -57 10 -15 18 -55 21 -100 4 -67 7 -77 27 -84 27
-10 32 -18 39 -52 3 -19 -3 -32 -20 -47 -29 -25 -24 -40 14 -42 24 -2 25 -2 4
-6 -20 -4 -22 -8 -16 -40 4 -24 3 -38 -6 -43 -9 -6 -4 -18 20 -48 18 -22 30
-46 27 -54 -4 -9 -6 -8 -6 3 -1 11 -12 18 -33 21 -32 3 -33 3 -36 -40 -1 -27
1 -41 8 -37 5 3 10 13 10 21 0 21 37 17 43 -5 2 -10 17 -25 33 -32 33 -16 48
-69 20 -69 -12 0 -16 -10 -16 -40 0 -32 4 -40 18 -40 9 0 23 -9 30 -20 17 -28
-3 -58 -43 -63 -19 -3 -14 -5 15 -4 74 1 119 -23 69 -36 -15 -4 -19 -11 -14
-25 3 -11 1 -23 -5 -27 -5 -3 -10 -1 -10 4 0 6 -15 11 -34 11 -18 0 -50 7 -69
15 -50 21 -57 19 -57 -13 0 -15 -5 -33 -11 -39 -8 -8 -8 -16 0 -30 9 -16 10
-16 11 7 l1 25 22 -29 c12 -17 34 -42 49 -57 14 -14 28 -34 30 -44 5 -29 25
-28 32 1 5 20 2 32 -15 50 -13 14 -19 29 -15 39 4 11 -3 24 -19 37 -26 20 -33
38 -15 38 6 0 10 -7 10 -15 0 -10 10 -15 28 -15 30 0 77 -42 77 -69 0 -10 10
-17 28 -19 33 -4 34 -35 1 -40 -16 -2 -20 -10 -20 -35 0 -18 -4 -40 -8 -49
-12 -25 21 -36 38 -13 12 16 14 15 20 -15 4 -22 2 -36 -5 -41 -7 -4 -14 -21
-15 -38 -4 -29 -2 -31 37 -37 22 -4 47 -13 55 -21 12 -13 15 -12 20 1 3 9 1
22 -5 30 -13 15 -5 26 19 26 22 0 36 -17 45 -51 5 -21 2 -27 -14 -32 -25 -6
-27 -20 -6 -40 12 -13 11 -15 -16 -19 -16 -3 -51 1 -77 7 -40 10 -43 13 -24
19 12 4 31 4 42 1 24 -8 27 20 6 48 -16 21 -35 22 -51 1 -10 -15 -13 -15 -27
0 -9 9 -19 16 -22 16 -10 0 -46 -39 -46 -50 0 -23 -21 -7 -26 20 -5 21 -12 30
-25 30 -11 0 -19 5 -19 11 0 6 -7 4 -15 -5 -8 -8 -15 -22 -15 -30 0 -9 -8 -16
-20 -16 -13 0 -20 7 -20 20 0 11 -4 20 -10 20 -5 0 -10 14 -10 30 0 27 3 30
30 30 24 0 30 -4 30 -22 0 -12 3 -18 7 -14 4 4 8 15 8 23 0 30 22 24 43 -12
12 -19 26 -35 31 -35 14 0 19 31 9 58 -5 14 -4 21 1 17 13 -7 26 15 14 24 -5
3 -18 25 -29 48 -10 23 -22 43 -26 43 -4 0 -14 -12 -22 -27 l-15 -28 -1 28 c0
42 -25 28 -25 -14 0 -45 -12 -64 -31 -48 -15 13 -19 59 -5 59 9 0 -8 71 -20
80 -3 3 -9 21 -13 41 -3 20 -12 37 -19 36 -34 -1 -70 5 -57 10 24 8 38 32 33
53 -3 11 -9 20 -14 20 -5 0 -9 6 -9 14 0 8 -7 16 -15 20 -17 6 -21 42 -5 48 6
2 31 2 55 0 31 -3 45 -9 45 -18 0 -12 4 -13 23 -2 21 12 21 12 2 16 -33 7 -46
22 -35 42 13 25 -4 36 -67 45 -29 4 -53 12 -54 18 -1 7 -2 26 -4 44 -1 18 -6
40 -9 49 -7 18 -22 115 -37 234 -5 41 -14 111 -20 155 -16 126 -17 281 -2 390
16 118 17 145 7 204 -6 39 -5 43 12 39 15 -3 18 -10 15 -38z m161 -42 c-9 -9
-12 -7 -12 12 0 19 3 21 12 12 9 -9 9 -15 0 -24z m38 17 c0 -8 -4 -15 -10 -15
-5 0 -10 7 -10 15 0 8 5 15 10 15 6 0 10 -7 10 -15z m5567 -12 c-3 -2 -16 -1
-29 3 l-23 8 25 6 c23 6 39 -4 27 -17z m-8738 -50 c-15 -55 -51 -146 -66 -164
-7 -8 -13 -21 -13 -27 0 -14 -56 -16 -65 -3 -3 6 0 13 8 18 7 4 19 28 27 53 8
25 29 64 47 87 18 24 33 47 33 52 0 9 15 18 32 20 3 1 2 -16 -3 -36z m3301 -9
c0 -8 -5 -12 -10 -9 -6 4 -8 11 -5 16 9 14 15 11 15 -7z m5277 -146 c-3 -7 -5
-2 -5 12 0 14 2 19 5 13 2 -7 2 -19 0 -25z m-1957 2 c0 -5 -5 -10 -11 -10 -5
0 -7 5 -4 10 3 6 8 10 11 10 2 0 4 -4 4 -10z m330 -36 c0 -23 -19 -25 -30 -4
-14 26 -4 45 16 29 8 -6 14 -17 14 -25z m-3405 -4 c-5 -8 -11 -8 -17 -2 -6 6
-7 16 -3 22 5 8 11 8 17 2 6 -6 7 -16 3 -22z m3015 0 c0 -5 -5 -10 -11 -10 -5
0 -7 5 -4 10 3 6 8 10 11 10 2 0 4 -4 4 -10z m40 -10 c0 -5 -4 -10 -10 -10 -5
0 -10 5 -10 10 0 6 5 10 10 10 6 0 10 -4 10 -10z m410 0 c0 -5 -5 -10 -11 -10
-5 0 -7 5 -4 10 3 6 8 10 11 10 2 0 4 -4 4 -10z m-3430 -15 c0 -8 -4 -15 -10
-15 -5 0 -10 7 -10 15 0 8 5 15 10 15 6 0 10 -7 10 -15z m-272 -46 c7 -12 11
-23 9 -26 -9 -9 -47 17 -47 32 0 22 23 18 38 -6z m82 -14 c0 -8 -7 -15 -15
-15 -8 0 -15 7 -15 15 0 8 7 15 15 15 8 0 15 -7 15 -15z m4070 -85 c0 -13 -11
-13 -30 0 -12 8 -11 10 8 10 12 0 22 -4 22 -10z m-3955 -111 c8 -23 1 -34 -14
-24 -13 8 -15 45 -2 45 5 0 13 -9 16 -21z m255 -7 c0 -10 5 -23 12 -30 6 -6 9
-15 5 -19 -10 -10 -24 8 -32 40 -5 17 -3 27 4 27 6 0 11 -8 11 -18z m1918 -34
c6 -17 10 -34 7 -36 -7 -8 -25 9 -20 19 4 5 1 9 -4 9 -6 0 -11 -5 -11 -11 0
-5 -4 -8 -9 -5 -12 8 -1 56 13 56 6 0 17 -14 24 -32z m92 -19 c0 -11 -4 -17
-10 -14 -5 3 -10 13 -10 21 0 8 5 14 10 14 6 0 10 -9 10 -21z m-2280 -19 c0
-5 -2 -10 -4 -10 -3 0 -8 5 -11 10 -3 6 -1 10 4 10 6 0 11 -4 11 -10z m120 2
c0 -13 -12 -22 -22 -16 -10 6 -1 24 13 24 5 0 9 -4 9 -8z m188 -41 c3 -8 -1
-12 -9 -9 -7 2 -15 10 -17 17 -3 8 1 12 9 9 7 -2 15 -10 17 -17z m-201 -13
c-3 -8 -6 -5 -6 6 -1 11 2 17 5 13 3 -3 4 -12 1 -19z m-72 2 c3 -5 -1 -10 -10
-10 -9 0 -13 5 -10 10 3 6 8 10 10 10 2 0 7 -4 10 -10z m154 -30 c0 -10 -3 -8
-9 5 -12 27 -12 43 0 25 5 -8 9 -22 9 -30z m-444 -8 c7 -24 -20 -80 -28 -58
-4 9 -2 18 4 22 6 4 6 11 -1 19 -12 14 -6 35 10 35 5 0 11 -8 15 -18z m3368
-5 c31 -5 57 -13 57 -17 0 -4 -17 -15 -37 -26 -40 -20 -101 -58 -119 -73 -6
-5 -30 -19 -54 -31 -37 -19 -49 -20 -84 -11 -44 11 -160 22 -214 21 -18 0 -48
7 -68 16 -27 13 -40 14 -57 6 -25 -12 -55 -11 -77 3 -8 5 -25 8 -37 6 -13 -1
-23 3 -23 9 0 16 63 40 76 30 14 -13 54 -1 54 16 0 8 8 14 18 14 11 0 27 9 37
20 25 27 53 25 65 -4 5 -14 18 -30 29 -35 26 -15 114 -14 129 1 8 8 15 8 26
-1 12 -10 24 -8 61 8 26 12 51 18 56 16 4 -3 15 5 24 18 18 28 47 31 138 14z
m-2979 -32 c3 -8 1 -15 -4 -15 -6 0 -10 7 -10 15 0 8 2 15 4 15 2 0 6 -7 10
-15z m39 -28 c-3 -5 -10 -4 -15 1 -6 6 -7 16 -3 22 6 9 9 9 16 -1 4 -7 5 -17
2 -22z m47 -3 c0 -8 -4 -12 -10 -9 -5 3 -10 10 -10 16 0 5 5 9 10 9 6 0 10 -7
10 -16z m3875 -13 c-3 -12 -13 -21 -21 -21 -18 0 -18 9 3 32 20 22 27 17 18
-11z m-1922 -41 c7 0 4 -5 -6 -11 -13 -8 -22 -7 -33 2 -14 11 -14 13 0 21 9 5
17 17 17 26 1 9 4 5 6 -10 2 -16 10 -28 16 -28z m-2413 14 c0 -9 -5 -14 -12
-12 -18 6 -21 28 -4 28 9 0 16 -7 16 -16z m2570 -21 c0 -21 -24 -53 -39 -53
-14 0 -19 5 -15 15 4 8 2 21 -4 28 -8 9 -2 12 24 12 19 0 34 -1 34 -2z m1712
-1 c12 -5 14 -11 9 -21 -11 -17 -41 -7 -41 14 0 16 5 17 32 7z m-3762 -17 c0
-8 -4 -15 -10 -15 -5 0 -10 7 -10 15 0 8 5 15 10 15 6 0 10 -7 10 -15z m5800
5 c0 -5 -7 -10 -15 -10 -8 0 -15 5 -15 10 0 6 7 10 15 10 8 0 15 -4 15 -10z
m-3970 -31 c18 -33 6 -42 -13 -9 -10 16 -14 30 -8 30 6 0 15 -9 21 -21z
m-1725 -46 c0 -20 -5 -38 -12 -40 -16 -6 -27 17 -14 30 6 6 11 19 11 29 0 10
3 18 8 18 4 0 7 -17 7 -37z m1771 10 c-10 -10 -19 5 -10 18 6 11 8 11 12 0 2
-7 1 -15 -2 -18z m-99 -15 c1 -13 -6 -18 -28 -18 -26 0 -39 17 -23 32 12 13
50 2 51 -14z m1313 -8 c0 -5 -5 -10 -11 -10 -5 0 -7 5 -4 10 3 6 8 10 11 10 2
0 4 -4 4 -10z m-1425 -10 c-3 -5 -11 -10 -16 -10 -6 0 -7 5 -4 10 3 6 11 10
16 10 6 0 7 -4 4 -10z m520 -19 c3 -5 1 -12 -5 -16 -5 -3 -10 1 -10 9 0 18 6
21 15 7z m-2905 -120 c0 -16 -28 -20 -34 -5 -4 9 1 14 14 14 11 0 20 -4 20 -9z
m278 -3 c-6 -18 -28 -21 -28 -4 0 9 7 16 16 16 9 0 14 -5 12 -12z m1647 -128
c-3 -5 -11 -10 -16 -10 -6 0 -7 5 -4 10 3 6 11 10 16 10 6 0 7 -4 4 -10z
m-461 -9 c3 -5 15 -7 26 -4 14 4 20 0 20 -10 0 -8 6 -18 13 -21 6 -3 -1 -3
-18 1 -16 3 -34 8 -40 12 -10 6 -16 7 -35 10 -5 0 -10 6 -10 11 0 12 37 13 44
1z m-1149 -31 c7 -21 -2 -60 -13 -60 -4 0 -7 18 -7 40 0 43 10 53 20 20z m26
-27 c-9 -15 -10 -12 -10 17 0 29 1 32 10 18 7 -12 7 -24 0 -35z m109 -44 c0
-18 -54 -80 -83 -95 -33 -18 -50 -10 -23 9 10 7 16 22 14 33 -2 14 4 20 24 22
16 2 30 11 33 23 7 20 35 27 35 8z m52 -121 c-8 -8 -12 -9 -12 -1 0 6 -3 20
-6 30 -7 17 -6 17 12 1 14 -14 16 -20 6 -30z m-92 0 c0 -16 -3 -19 -11 -11 -6
6 -8 16 -5 22 11 17 16 13 16 -11z m55 -98 c4 -6 -7 -10 -24 -10 -17 0 -31 5
-31 10 0 6 11 10 24 10 14 0 28 -4 31 -10z m985 -70 c0 -22 -4 -28 -15 -24
-18 7 -19 26 -3 42 17 17 18 16 18 -18z m-847 3 c-7 -2 -19 -2 -25 0 -7 3 -2
5 12 5 14 0 19 -2 13 -5z m-33 -93 c0 -13 -7 -20 -20 -20 -19 0 -19 1 -3 20
10 11 19 20 20 20 2 0 3 -9 3 -20z m-275 0 c3 -5 -1 -10 -10 -10 -9 0 -13 5
-10 10 3 6 8 10 10 10 2 0 7 -4 10 -10z m-101 -8 c6 -10 -30 -42 -47 -42 -7 1
-5 6 6 14 9 7 17 18 17 25 0 13 16 15 24 3z m94 -28 c18 11 42 -6 42 -30 0
-13 6 -24 13 -24 8 0 19 -11 25 -25 10 -22 9 -24 -9 -22 -11 2 -24 9 -28 16
-5 7 -19 11 -32 9 -19 -2 -24 -9 -24 -30 1 -18 -5 -28 -13 -28 -8 0 -12 6 -9
14 4 10 1 13 -9 9 -16 -6 -20 12 -4 22 6 4 4 12 -5 21 -21 21 -19 71 3 83 12
8 20 6 29 -5 6 -9 16 -13 21 -10z m186 -25 c-7 -11 -15 -11 -34 1 -13 9 -13
11 0 19 16 11 43 -5 34 -20z m-364 -4 c0 -8 -4 -16 -9 -19 -12 -8 -34 21 -27
33 9 14 36 2 36 -14z m573 -25 c-7 -8 -22 24 -16 34 4 5 10 1 13 -10 4 -10 6
-21 3 -24z m-61 -5 c-3 -27 -1 -35 12 -35 10 0 16 -8 16 -21 0 -16 -3 -19 -13
-11 -7 6 -30 12 -52 14 -35 3 -40 6 -43 30 -2 18 -10 28 -25 31 -12 3 -3 3 20
2 28 -2 44 2 47 11 3 8 14 14 24 14 15 0 17 -6 14 -35z m105 -1 c-3 -3 -12 -4
-19 -1 -8 3 -5 6 6 6 11 1 17 -2 13 -5z m-287 -33 c0 -5 -7 -11 -15 -15 -9 -3
-15 0 -15 9 0 8 7 15 15 15 8 0 15 -4 15 -9z m-126 -57 c9 -22 8 -24 -9 -24
-8 0 -15 9 -15 20 0 24 15 27 24 4z m54 -6 c-5 -34 -38 -37 -38 -4 0 20 5 26
21 26 15 0 20 -5 17 -22z m247 -48 c3 -5 -1 -10 -10 -10 -9 0 -13 5 -10 10 3
6 8 10 10 10 2 0 7 -4 10 -10z m102 -3 c12 0 20 -4 17 -8 -2 -4 -12 -5 -23 -2
-12 3 -20 -2 -24 -16 -6 -25 -33 -28 -39 -3 -8 28 2 42 25 37 12 -3 32 -7 44
-8z m-247 -28 c9 -15 8 -24 -1 -35 -14 -18 -30 -18 -53 -1 -15 11 -17 17 -7
35 15 28 47 28 61 1z m100 -18 c0 -22 4 -42 9 -45 5 -3 12 -22 16 -43 4 -25 9
-32 15 -23 12 20 40 4 39 -22 -1 -17 -2 -18 -6 -5 -6 22 -19 22 -27 1 -6 -16
-8 -16 -24 0 -10 9 -23 16 -29 16 -17 0 -21 35 -7 55 21 29 0 59 -37 51 -24
-5 -29 -2 -29 14 0 11 7 20 15 20 8 0 15 5 15 10 0 6 11 10 25 10 22 0 25 -4
25 -39z m194 -6 c6 -17 -10 -29 -29 -21 -20 7 -19 -3 2 -26 9 -11 11 -18 5
-18 -7 0 -12 5 -12 12 0 9 -3 9 -12 0 -8 -8 -15 -9 -25 -1 -8 7 -18 8 -25 2
-17 -12 -50 -11 -54 2 -2 6 1 17 6 25 8 12 13 13 30 3 26 -17 40 -16 40 2 0 8
9 15 20 15 11 0 20 7 20 15 0 17 26 10 34 -10z m-295 -73 c3 -1 -1 -8 -7 -14
-17 -17 -15 -28 5 -28 16 0 16 -1 1 -16 -12 -13 -20 -14 -37 -5 -14 8 -21 8
-21 1 0 -5 -9 -10 -19 -10 -25 0 -24 41 1 48 26 7 22 22 -6 22 -28 0 -45 19
-27 30 10 5 89 -14 110 -28z m61 -51 c0 -21 -13 -41 -26 -41 -14 0 -19 31 -7
43 10 10 33 8 33 -2z m378 -27 c9 -6 13 -18 9 -28 -9 -24 12 -20 33 7 l18 22
24 -22 c13 -13 30 -23 37 -23 6 0 11 -6 10 -12 -2 -21 12 -58 23 -58 5 0 6 -4
3 -10 -3 -5 -11 -10 -16 -10 -6 0 -8 4 -5 9 3 4 -21 14 -54 21 -43 9 -64 19
-75 36 -11 18 -25 24 -53 25 -21 1 -29 3 -17 6 33 8 45 24 40 52 -3 14 -2 19
2 11 3 -8 13 -20 21 -26z m-418 -35 c0 -8 4 -8 13 -1 14 12 53 -11 44 -26 -6
-9 -71 -7 -87 3 -18 11 -11 35 10 35 11 0 20 -5 20 -11z m280 -19 c0 -5 -9
-10 -20 -10 -11 0 -20 5 -20 10 0 6 9 10 20 10 11 0 20 -4 20 -10z m-93 -16
c-3 -3 -12 -4 -19 -1 -8 3 -5 6 6 6 11 1 17 -2 13 -5z m-121 -24 c9 0 14 -11
14 -32 l0 -33 18 34 c9 19 23 37 30 39 15 5 16 -22 1 -49 -8 -16 -7 -25 5 -38
9 -10 16 -23 16 -29 0 -17 -25 -15 -40 3 -16 20 -30 19 -30 -2 0 -16 -14 -10
-16 8 -1 5 -2 12 -3 17 0 4 -13 20 -27 35 -27 30 -26 64 2 53 9 -3 22 -6 30
-6z m119 4 c13 -5 14 -8 3 -15 -19 -13 -28 -11 -28 6 0 17 2 18 25 9z m2831
-52 c-11 -10 -14 3 -8 33 l7 30 3 -28 c2 -16 1 -31 -2 -35z m-2769 -4 c-3 -8
-6 -5 -6 6 -1 11 2 17 5 13 3 -3 4 -12 1 -19z m93 -47 c0 -6 -4 -13 -10 -16
-5 -3 -10 1 -10 9 0 9 5 16 10 16 6 0 10 -4 10 -9z m2174 -13 c-9 -31 -11 -33
-28 -19 -19 16 -9 41 16 41 15 0 18 -4 12 -22z m-1943 -28 c6 0 7 -5 4 -11 -5
-6 -13 -3 -22 10 -8 12 -11 26 -6 34 5 8 9 5 11 -10 2 -13 8 -23 13 -23z
m-171 9 c0 -24 -23 -21 -28 4 -2 10 3 17 12 17 10 0 16 -9 16 -21z m237 15
c-3 -3 -12 -4 -19 -1 -8 3 -5 6 6 6 11 1 17 -2 13 -5z m-177 -65 c0 -5 -7 -9
-15 -9 -9 0 -12 6 -9 15 6 15 24 11 24 -6z m-92 -73 c3 -12 -1 -17 -10 -14 -7
3 -15 13 -16 22 -3 12 1 17 10 14 7 -3 15 -13 16 -22z m237 14 c3 -5 -1 -10
-9 -10 -9 0 -16 5 -16 10 0 6 4 10 9 10 6 0 13 -4 16 -10z m-328 -36 c-3 -3
-12 -4 -19 -1 -8 3 -5 6 6 6 11 1 17 -2 13 -5z m329 -31 c-10 -10 -19 5 -10
18 6 11 8 11 12 0 2 -7 1 -15 -2 -18z"/>
<path d="M3010 9770 c0 -5 7 -10 15 -10 8 0 15 5 15 10 0 6 -7 10 -15 10 -8 0
-15 -4 -15 -10z"/>
<path d="M3040 9736 c0 -9 5 -16 10 -16 6 0 10 4 10 9 0 6 -4 13 -10 16 -5 3
-10 -1 -10 -9z"/>
<path d="M7882 9501 c2 -7 7 -12 11 -12 12 1 9 15 -3 20 -7 2 -11 -2 -8 -8z"/>
<path d="M8668 9433 c7 -3 16 -2 19 1 4 3 -2 6 -13 5 -11 0 -14 -3 -6 -6z"/>
<path d="M7426 9403 c-5 -15 -2 -31 8 -45 l16 -22 -1 24 c0 14 -4 34 -8 45 -8
19 -8 19 -15 -2z"/>
<path d="M8720 9400 c0 -5 5 -10 10 -10 6 0 10 5 10 10 0 6 -4 10 -10 10 -5 0
-10 -4 -10 -10z"/>
<path d="M6856 9384 c-9 -22 -8 -23 13 -21 12 1 17 7 13 19 -5 22 -18 23 -26
2z"/>
<path d="M6610 9370 c0 -5 5 -10 10 -10 6 0 10 5 10 10 0 6 -4 10 -10 10 -5 0
-10 -4 -10 -10z"/>
<path d="M8752 9288 c-18 -18 -15 -25 18 -37 28 -9 30 -8 30 13 0 13 -7 27
-16 30 -20 8 -18 8 -32 -6z"/>
<path d="M4206 8754 c-3 -9 -4 -20 -1 -25 7 -10 55 18 55 32 0 16 -48 10 -54
-7z"/>
<path d="M8880 8710 c0 -5 -9 -10 -20 -10 -11 0 -20 -4 -20 -10 0 -5 11 -10
25 -10 13 0 28 -8 34 -17 7 -14 13 -15 22 -6 18 18 3 63 -21 63 -11 0 -20 -4
-20 -10z"/>
<path d="M8947 8609 c-10 -37 1 -49 34 -37 35 12 39 43 7 52 -34 9 -35 8 -41
-15z"/>
<path d="M4031 8563 c-18 -73 -19 -83 -12 -83 13 0 38 34 38 50 0 8 2 20 3 25
1 6 2 18 1 28 -2 30 -20 18 -30 -20z"/>
<path d="M4107 8583 c-8 -8 -9 -43 -1 -43 12 0 35 31 29 40 -7 12 -19 13 -28
3z"/>
<path d="M9281 8574 c0 -11 3 -14 6 -6 3 7 2 16 -1 19 -3 4 -6 -2 -5 -13z"/>
<path d="M3965 8550 c3 -5 8 -10 11 -10 2 0 4 5 4 10 0 6 -5 10 -11 10 -5 0
-7 -4 -4 -10z"/>
<path d="M8920 8527 c0 -18 -5 -38 -11 -44 -9 -9 -4 -12 20 -11 23 1 31 6 31
19 0 10 -4 21 -10 24 -5 3 -10 15 -10 26 0 10 -4 19 -10 19 -5 0 -10 -15 -10
-33z"/>
<path d="M4171 8531 c-7 -5 -11 -17 -9 -27 4 -17 5 -17 17 4 14 27 12 35 -8
23z"/>
<path d="M8790 8501 c0 -25 -15 -28 -24 -4 -6 14 -9 15 -15 4 -6 -8 -3 -21 7
-32 20 -23 32 -24 32 -4 0 8 7 15 15 15 8 0 15 4 15 9 0 5 -7 14 -15 21 -13
10 -15 9 -15 -9z"/>
<path d="M8895 8451 c-7 -12 12 -24 25 -16 11 7 4 25 -10 25 -5 0 -11 -4 -15
-9z"/>
<path d="M9103 8405 c-17 -19 -16 -25 2 -25 8 0 15 9 15 20 0 23 -1 24 -17 5z"/>
<path d="M3922 8390 c0 -14 2 -19 5 -12 2 6 2 18 0 25 -3 6 -5 1 -5 -13z"/>
<path d="M3967 8393 c-4 -3 -7 -11 -7 -17 0 -6 5 -5 12 2 6 6 9 14 7 17 -3 3
-9 2 -12 -2z"/>
<path d="M8942 8391 c-7 -4 -11 -18 -10 -32 2 -17 -4 -27 -20 -34 -18 -8 -22
-15 -17 -35 9 -33 10 -34 36 -19 44 23 48 32 35 82 -8 32 -15 44 -24 38z"/>
<path d="M9040 8340 c0 -24 15 -27 24 -4 9 22 8 24 -9 24 -8 0 -15 -9 -15 -20z"/>
<path d="M9000 8335 c-10 -13 -9 -15 8 -15 15 0 20 5 16 15 -4 8 -7 15 -9 15
-1 0 -8 -7 -15 -15z"/>
<path d="M3938 8315 c-5 -25 3 -40 16 -28 9 10 7 53 -3 53 -5 0 -11 -11 -13
-25z"/>
<path d="M4150 8305 c-8 -9 -8 -15 -2 -15 12 0 26 19 19 26 -2 2 -10 -2 -17
-11z"/>
<path d="M4225 8280 c-3 -5 -2 -10 4 -10 5 0 13 5 16 10 3 6 2 10 -4 10 -5 0
-13 -4 -16 -10z"/>
<path d="M9025 8170 c-3 -5 -1 -10 4 -10 6 0 11 5 11 10 0 6 -2 10 -4 10 -3 0
-8 -4 -11 -10z"/>
<path d="M8922 8120 c-19 -31 -14 -39 23 -38 22 1 35 6 35 15 0 7 -4 13 -10
13 -5 0 -10 7 -10 15 0 21 -23 19 -38 -5z"/>
<path d="M8765 7970 c-10 -11 -16 -22 -13 -25 9 -10 68 17 68 31 0 21 -34 17
-55 -6z"/>
<path d="M3901 7948 c-1 -26 21 -58 40 -58 5 0 9 7 9 16 0 10 -6 14 -14 11
-10 -4 -13 -1 -9 9 3 7 0 14 -5 14 -6 0 -13 8 -15 18 -3 11 -5 7 -6 -10z"/>
<path d="M8700 7930 c-12 -8 -11 -10 8 -10 12 0 22 5 22 10 0 13 -11 13 -30 0z"/>
<path d="M8687 7419 c-21 -11 -41 -27 -44 -35 -3 -9 -15 -20 -27 -25 -35 -16
-61 -33 -86 -56 -13 -13 -28 -23 -33 -23 -4 0 -15 -7 -24 -16 -12 -11 -13 -18
-4 -27 8 -8 20 -6 46 6 20 9 42 17 49 17 7 0 21 9 31 20 10 11 24 20 32 20 20
0 113 100 113 122 0 22 -5 22 -53 -3z"/>
<path d="M3115 7327 c-16 -34 -19 -53 -13 -102 18 -153 19 -155 76 -233 20
-26 27 -30 39 -20 11 9 16 9 23 -2 6 -10 17 -5 44 22 34 33 36 38 36 101 0 36
-4 77 -10 92 -18 48 -142 185 -167 185 -4 0 -17 -19 -28 -43z"/>
<path d="M8380 7200 c-13 -8 -12 -10 3 -10 9 0 17 5 17 10 0 12 -1 12 -20 0z"/>
<path d="M8255 7136 c-22 -11 -42 -22 -44 -23 -2 -2 -1 -6 2 -9 4 -4 12 -2 19
4 7 5 30 13 51 17 21 4 37 13 37 21 0 19 -17 16 -65 -10z"/>
<path d="M11128 7113 c6 -2 18 -2 25 0 6 3 1 5 -13 5 -14 0 -19 -2 -12 -5z"/>
<path d="M11288 6868 c9 -9 15 -9 24 0 9 9 7 12 -12 12 -19 0 -21 -3 -12 -12z"/>
<path d="M3570 6823 c-20 -3 -42 -13 -52 -26 -19 -24 -24 -77 -8 -77 6 0 10
-6 10 -14 0 -24 26 -36 76 -36 27 0 69 0 94 0 25 0 54 6 65 14 17 12 18 17 7
40 -6 15 -23 31 -37 36 -14 5 -25 14 -25 20 0 5 -8 19 -17 30 -17 20 -34 22
-113 13z"/>
<path d="M2990 6432 c0 -29 4 -52 10 -52 6 0 8 19 5 47 -6 64 -15 67 -15 5z"/>
<path d="M3620 6260 c0 -6 10 -10 23 -10 15 0 18 -3 9 -9 -10 -6 -8 -15 12
-38 14 -17 26 -35 26 -41 0 -5 7 -15 15 -22 8 -7 14 -26 14 -44 -2 -37 20 -98
45 -125 23 -25 73 -44 82 -30 9 15 -15 105 -35 125 -23 26 -91 137 -91 150 0
19 -39 47 -70 51 -17 1 -30 -2 -30 -7z"/>
<path d="M8850 6130 c-12 -8 -11 -10 8 -10 12 0 22 5 22 10 0 13 -11 13 -30 0z"/>
<path d="M8975 6070 c3 -5 8 -10 11 -10 2 0 4 5 4 10 0 6 -5 10 -11 10 -5 0
-7 -4 -4 -10z"/>
<path d="M3950 5519 c0 -35 23 -129 32 -129 12 0 10 22 -7 86 -17 64 -25 79
-25 43z"/>
<path d="M7610 5530 c-11 -7 -11 -10 -2 -10 15 0 45 -66 37 -81 -9 -13 15
-119 33 -147 8 -12 12 -32 9 -44 -4 -13 0 -26 10 -33 11 -9 16 -33 18 -97 2
-90 7 -108 30 -108 19 0 41 -40 27 -49 -5 -3 -12 -32 -15 -63 -4 -45 -2 -58 9
-58 17 0 17 5 4 30 -8 16 -5 19 20 25 31 7 42 25 15 25 -25 0 -17 17 10 22 24
5 25 3 26 -41 1 -25 1 -50 0 -55 -3 -15 19 -34 49 -40 37 -7 38 -22 3 -58
l-27 -28 27 0 c17 0 27 5 27 15 0 8 9 15 19 15 23 0 36 16 21 25 -5 3 -10 17
-10 30 0 18 7 26 24 31 25 6 41 49 29 80 -5 13 -2 15 16 9 14 -4 22 -2 25 7
37 126 38 129 26 143 -6 8 -14 41 -17 73 -6 63 -11 73 -61 115 -41 33 -64 35
-62 5 1 -13 2 -27 1 -31 -2 -13 -41 13 -41 27 0 7 -11 19 -25 26 -14 8 -23 20
-21 27 7 17 -3 43 -16 43 -14 0 -117 95 -153 142 -31 40 -40 44 -65 28z"/>
<path d="M11933 5443 c9 -2 23 -2 30 0 6 3 -1 5 -18 5 -16 0 -22 -2 -12 -5z"/>
<path d="M7911 5294 c0 -11 3 -14 6 -6 3 7 2 16 -1 19 -3 4 -6 -2 -5 -13z"/>
<path d="M3710 5225 c7 -8 20 -15 29 -15 9 0 27 -7 39 -16 12 -8 27 -12 33 -8
8 5 6 10 -5 16 -9 5 -16 16 -16 23 0 11 -13 15 -46 15 -40 0 -45 -2 -34 -15z"/>
<path d="M8127 5153 c-4 -3 -7 -28 -7 -56 0 -38 -5 -53 -22 -67 -20 -15 -21
-21 -10 -44 7 -15 8 -26 2 -26 -6 0 -10 -5 -10 -11 0 -18 21 2 34 32 l12 29
27 -41 c15 -22 27 -46 27 -53 0 -7 5 -17 12 -24 7 -7 9 -12 5 -12 -3 0 6 -12
20 -27 44 -48 76 -127 69 -170 -4 -21 -8 -64 -10 -97 -3 -49 0 -59 14 -63 10
-3 23 -16 29 -30 9 -19 15 -22 24 -15 23 19 40 -3 34 -43 l-6 -37 35 27 35 27
26 -26 c15 -15 20 -26 12 -26 -10 0 -10 -3 -1 -12 10 -10 17 -10 32 0 27 16
30 15 30 -8 0 -12 -7 -20 -16 -20 -24 0 -12 -35 14 -38 14 -2 22 -10 22 -23 0
-12 7 -19 20 -19 18 0 20 4 14 35 -5 28 -3 35 9 35 9 0 18 -4 22 -10 3 -5 12
-7 20 -3 17 6 20 -14 5 -37 -7 -11 -10 -11 -10 -2 0 7 -5 10 -11 7 -21 -13 25
-35 60 -28 31 5 33 4 26 -18 -4 -18 -4 -20 4 -10 8 12 12 12 25 2 8 -7 12 -19
9 -27 -3 -8 1 -14 9 -14 10 0 15 11 16 32 1 34 18 50 45 42 12 -4 17 0 17 15
0 17 -6 21 -29 21 -17 0 -33 -4 -36 -10 -10 -16 -47 -12 -61 8 -15 20 -18 54
-5 68 5 5 14 27 21 49 l13 39 27 -32 c31 -37 45 -40 60 -12 10 18 8 20 -19 20
-26 0 -29 4 -33 36 -3 22 1 42 9 49 20 21 16 25 -27 25 -36 0 -40 2 -40 25 0
25 -6 35 -41 75 -9 10 -36 46 -60 81 -49 73 -106 151 -117 161 -114 107 -133
128 -127 139 5 7 3 10 -6 7 -8 -3 -30 10 -49 29 -19 18 -46 36 -60 40 -14 3
-43 14 -65 24 -43 20 -58 23 -68 12z m563 -737 c0 -2 -3 -11 -6 -20 -9 -23
-24 -20 -24 4 0 11 7 20 15 20 8 0 15 -2 15 -4z"/>
<path d="M4320 4805 c1 -17 29 -49 37 -41 4 3 -3 16 -15 29 -12 12 -22 17 -22
12z"/>
<path d="M8002 4745 c0 -16 2 -22 5 -12 2 9 2 23 0 30 -3 6 -5 -1 -5 -18z"/>
<path d="M7980 4690 c-13 -9 -13 -12 4 -25 10 -7 15 -18 12 -23 -3 -6 2 -8 14
-5 16 4 20 0 20 -20 0 -14 5 -29 11 -33 9 -5 10 4 4 32 -4 21 -8 48 -9 59 -1
23 -33 31 -56 15z"/>
<path d="M6711 4663 c0 -13 -7 -23 -15 -23 -19 0 -27 -40 -16 -80 11 -38 37
-80 49 -80 5 0 9 36 9 80 1 44 -3 80 -8 80 -5 0 -11 10 -13 23 l-4 22 -2 -22z"/>
<path d="M8220 4640 c0 -5 5 -10 11 -10 5 0 7 5 4 10 -3 6 -8 10 -11 10 -2 0
-4 -4 -4 -10z"/>
<path d="M7875 4620 c-18 -19 -17 -20 13 -31 34 -12 43 -29 15 -29 -9 0 -13
-3 -10 -7 12 -11 87 31 87 50 0 20 -30 23 -48 5 -9 -9 -12 -7 -12 10 0 27 -21
28 -45 2z"/>
<path d="M8100 4631 c0 -5 5 -13 10 -16 6 -3 10 -2 10 4 0 5 -4 13 -10 16 -5
3 -10 2 -10 -4z"/>
<path d="M7826 4615 c-3 -8 -1 -15 4 -15 6 0 10 7 10 15 0 8 -2 15 -4 15 -2 0
-6 -7 -10 -15z"/>
<path d="M8145 4611 c-8 -14 3 -51 16 -51 5 0 6 12 3 28 -8 34 -10 36 -19 23z"/>
<path d="M8951 4561 c-18 -11 34 -31 79 -31 23 0 40 5 40 11 0 7 -11 9 -30 6
-16 -4 -32 -3 -34 2 -8 13 -42 20 -55 12z"/>
<path d="M8055 4550 c3 -5 10 -10 16 -10 5 0 9 5 9 10 0 6 -7 10 -16 10 -8 0
-12 -4 -9 -10z"/>
<path d="M8228 4490 c-10 -9 -15 -19 -12 -23 8 -8 37 20 32 32 -2 4 -11 1 -20
-9z"/>
<path d="M7780 4464 c0 -31 23 -28 28 4 2 15 -2 22 -12 22 -11 0 -16 -9 -16
-26z"/>
<path d="M7672 4450 c0 -14 2 -19 5 -12 2 6 2 18 0 25 -3 6 -5 1 -5 -13z"/>
<path d="M8960 4445 c0 -15 4 -24 10 -20 6 3 10 12 10 20 0 8 -4 17 -10 20 -6
4 -10 -5 -10 -20z"/>
<path d="M6750 4451 c0 -5 5 -13 10 -16 6 -3 10 -2 10 4 0 5 -4 13 -10 16 -5
3 -10 2 -10 -4z"/>
<path d="M7882 4404 c-7 -8 -10 -19 -7 -24 10 -16 25 -12 25 6 0 10 6 14 15
10 9 -3 15 0 15 9 0 19 -31 19 -48 -1z"/>
<path d="M8732 4394 c-19 -21 -14 -31 20 -38 37 -7 39 -6 32 21 -7 26 -35 35
-52 17z"/>
<path d="M10737 4384 c-14 -14 -7 -63 11 -76 10 -7 21 -21 25 -30 3 -10 15
-18 25 -18 10 0 28 -11 40 -25 12 -14 29 -25 37 -25 9 0 21 -11 27 -25 6 -14
20 -25 30 -25 10 0 28 -9 40 -20 12 -11 28 -20 35 -20 19 0 -4 35 -33 51 -12
6 -25 21 -28 33 -3 11 -36 52 -73 91 -58 61 -67 67 -73 50 -7 -17 -8 -15 -11
10 -3 21 -10 31 -24 33 -12 2 -24 0 -28 -4z"/>
<path d="M8475 4250 c-3 -5 -1 -10 4 -10 6 0 11 5 11 10 0 6 -2 10 -4 10 -3 0
-8 -4 -11 -10z"/>
<path d="M8680 4225 c0 -8 5 -15 10 -15 6 0 10 7 10 15 0 8 -4 15 -10 15 -5 0
-10 -7 -10 -15z"/>
<path d="M8840 4176 c0 -9 5 -16 10 -16 6 0 10 4 10 9 0 6 -4 13 -10 16 -5 3
-10 -1 -10 -9z"/>
<path d="M6456 3921 c-12 -5 -15 -10 -9 -14 6 -4 16 0 23 8 14 17 13 17 -14 6z"/>
<path d="M5380 3733 c0 -5 5 -15 10 -23 8 -12 10 -11 10 8 0 12 -4 22 -10 22
-5 0 -10 -3 -10 -7z"/>
<path d="M8497 3500 c4 -14 -2 -23 -21 -31 -39 -18 -32 -32 12 -24 42 7 59 19
43 29 -6 4 -11 16 -11 27 0 10 -6 19 -14 19 -9 0 -12 -7 -9 -20z"/>
<path d="M7793 3260 c5 -19 -10 -26 -49 -21 -6 1 -17 -6 -24 -14 -7 -8 -18
-15 -26 -15 -7 0 -18 -8 -23 -17 -10 -17 -12 -16 -15 9 -2 25 -27 18 -37 -11
-6 -17 -13 -31 -15 -31 -2 0 -17 14 -33 31 -17 18 -35 28 -42 24 -8 -6 -8 -10
2 -16 10 -6 11 -9 2 -9 -7 0 -13 -10 -14 -22 l0 -23 -10 23 c-7 18 -15 23 -36
20 -25 -3 -28 -7 -31 -45 -4 -49 -32 -63 -32 -15 0 32 -9 46 -32 55 -14 5 -18
1 -18 -18 0 -25 -14 -33 -24 -16 -3 5 -17 11 -31 13 -21 5 -25 2 -25 -21 -1
-24 -1 -25 -12 -6 -16 29 -16 29 -32 16 -12 -10 -17 -9 -27 7 -11 18 -16 19
-38 8 -22 -11 -69 -21 -143 -30 -28 -4 -31 -14 -9 -28 31 -19 25 -36 -16 -44
-41 -8 -67 4 -71 32 -1 10 -13 24 -26 30 -21 10 -23 9 -23 -14 0 -13 -6 -27
-12 -31 -18 -12 -7 -55 17 -66 22 -10 30 -25 13 -25 -5 0 -31 11 -58 25 -35
18 -42 25 -25 25 13 0 22 6 22 15 0 18 -12 19 -27 4 -8 -8 -17 -5 -31 9 -17
17 -21 18 -26 5 -3 -8 -4 -19 0 -24 3 -5 -3 -9 -12 -9 -14 0 -15 -3 -6 -12 8
-8 15 -8 25 0 11 9 19 6 37 -13 29 -30 23 -38 -30 -38 -22 0 -43 -4 -46 -8 -3
-5 11 -9 31 -9 34 0 36 -2 33 -27 -3 -25 -7 -28 -35 -27 -28 2 -33 -1 -33 -21
0 -13 -4 -26 -9 -29 -4 -3 -6 -16 -4 -30 5 -22 7 -23 36 -14 18 6 37 15 44 20
13 11 33 3 33 -13 0 -6 -7 -17 -15 -25 -30 -30 -18 -36 71 -34 45 1 52 -2 57
-21 l6 -21 29 21 c37 26 56 27 50 3 -3 -10 2 -24 10 -31 12 -12 13 -11 8 7 -5
15 -1 24 14 32 16 9 20 8 20 -5 0 -24 25 -28 53 -10 24 15 26 15 36 -3 15 -28
45 -38 38 -13 -4 18 -2 18 27 6 25 -11 36 -11 55 0 36 19 75 5 82 -31 4 -16 7
-24 8 -18 0 7 11 14 22 17 14 4 20 11 16 20 -6 17 2 29 14 21 5 -3 5 -13 -1
-24 -7 -14 -5 -19 10 -23 11 -3 20 -12 20 -21 0 -18 25 -22 35 -5 12 18 56 30
70 19 15 -13 25 -3 25 27 0 29 25 31 40 3 6 -11 15 -20 20 -20 13 0 13 37 0
45 -18 11 -1 23 25 17 20 -3 27 1 38 25 10 26 15 29 35 22 13 -5 21 -5 18 0
-6 10 48 51 67 51 8 0 22 9 32 20 11 12 29 20 41 18 28 -4 54 19 54 47 0 13 7
26 16 29 26 10 34 7 28 -11 -5 -15 -4 -16 5 -3 6 8 11 23 11 32 0 9 8 23 18
30 32 23 44 54 30 82 -6 14 -17 26 -24 26 -7 0 -15 6 -18 13 -5 10 -7 10 -12
0 -3 -7 -12 -13 -19 -13 -8 0 -15 -10 -17 -22 -2 -14 -13 -24 -31 -29 -18 -5
-25 -4 -21 3 4 6 1 14 -6 18 -8 5 -15 18 -17 31 -2 12 -11 27 -20 34 -9 7 -13
17 -9 23 13 22 -37 102 -65 102 -6 0 -9 -8 -6 -20z m-18 -50 c3 -5 1 -10 -4
-10 -6 0 -11 5 -11 10 0 6 2 10 4 10 3 0 8 -4 11 -10z m65 -50 c0 -5 -4 -10
-10 -10 -5 0 -10 5 -10 10 0 6 5 10 10 10 6 0 10 -4 10 -10z m-300 -40 c13 -8
13 -10 -2 -10 -9 0 -20 5 -23 10 -8 13 5 13 25 0z m-440 -30 c12 -8 12 -10 -3
-16 -20 -7 -47 1 -47 16 0 12 30 13 50 0z m177 -102 c-3 -8 -6 -5 -6 6 -1 11
2 17 5 13 3 -3 4 -12 1 -19z m-447 -58 c0 -5 -7 -10 -15 -10 -8 0 -15 5 -15
10 0 6 7 10 15 10 8 0 15 -4 15 -10z"/>
<path d="M7885 3270 c3 -5 8 -10 11 -10 2 0 4 5 4 10 0 6 -5 10 -11 10 -5 0
-7 -4 -4 -10z"/>
<path d="M6500 3225 c7 -8 16 -15 21 -15 5 0 9 7 9 15 0 9 -9 15 -21 15 -18 0
-19 -2 -9 -15z"/>
<path d="M6776 3201 c11 -22 19 -27 39 -23 28 5 44 22 22 22 -8 0 -17 7 -21
15 -3 8 -16 15 -30 15 -24 0 -24 -1 -10 -29z"/>
<path d="M8005 3170 c-4 -6 10 -10 34 -10 23 0 41 5 41 10 0 6 -15 10 -34 10
-19 0 -38 -4 -41 -10z"/>
<path d="M5986 3161 c-18 -7 -18 -8 -2 -14 19 -8 36 -1 36 14 0 10 -7 11 -34
0z"/>
<path d="M5826 3143 c-16 -16 -2 -23 42 -22 42 1 44 2 16 8 -17 4 -35 11 -41
14 -6 4 -13 4 -17 0z"/>
<path d="M6830 3120 c-9 -6 -10 -10 -3 -10 6 0 15 5 18 10 8 12 4 12 -15 0z"/>
<path d="M5810 3040 c-13 -8 -13 -10 2 -10 9 0 20 5 23 10 8 13 -5 13 -25 0z"/>
<path d="M5745 3000 c-9 -29 20 -64 31 -37 3 9 -1 26 -9 37 l-15 22 -7 -22z"/>
<path d="M6655 2921 c-3 -5 -1 -12 5 -16 12 -7 30 2 30 16 0 12 -27 12 -35 0z"/>
<path d="M6660 2865 c0 -8 7 -15 15 -15 8 0 15 7 15 15 0 8 -7 15 -15 15 -8 0
-15 -7 -15 -15z"/>
<path d="M7397 2443 c-13 -12 -7 -43 8 -43 9 0 15 9 15 25 0 24 -10 32 -23 18z"/>
<path d="M7540 2440 c0 -5 7 -10 16 -10 8 0 12 5 9 10 -3 6 -10 10 -16 10 -5
0 -9 -4 -9 -10z"/>
<path d="M7720 2360 c0 -5 5 -10 10 -10 6 0 10 5 10 10 0 6 -4 10 -10 10 -5 0
-10 -4 -10 -10z"/>
<path d="M7415 2259 c-11 -17 1 -21 15 -4 8 9 8 15 2 15 -6 0 -14 -5 -17 -11z"/>
<path d="M1905 8887 c-4 -10 -5 -21 -1 -24 10 -10 18 4 13 24 -4 17 -4 17 -12
0z"/>
<path d="M3886 8685 c-19 -14 -19 -15 7 -15 17 0 27 5 27 15 0 19 -9 19 -34 0z"/>
<path d="M3556 7833 c-11 -11 -6 -23 9 -23 8 0 15 4 15 9 0 13 -16 22 -24 14z"/>
<path d="M3635 7763 c4 -43 12 -81 17 -84 5 -3 9 -10 8 -15 0 -5 8 -10 18 -12
19 -3 19 -1 1 69 -10 40 -16 76 -13 80 8 13 -8 39 -23 39 -13 0 -14 -12 -8
-77z"/>
<path d="M3725 7681 c-3 -5 -1 -12 5 -16 5 -3 10 1 10 9 0 18 -6 21 -15 7z"/>
<path d="M3700 7606 c0 -7 7 -19 15 -26 16 -13 20 -3 9 24 -8 20 -24 21 -24 2z"/>
<path d="M2234 5725 c-3 -11 -6 -24 -6 -30 -1 -5 -8 -16 -15 -23 -7 -7 -13
-27 -13 -43 0 -16 -4 -29 -10 -29 -5 0 -10 -9 -10 -19 0 -11 -4 -23 -10 -26
-5 -3 -10 -16 -10 -28 0 -13 -6 -32 -14 -43 -18 -26 -32 -94 -18 -94 10 0 47
85 47 110 0 8 5 29 12 45 7 17 17 49 23 73 6 23 15 42 20 42 11 0 25 68 16 78
-4 3 -9 -3 -12 -13z"/>
<path d="M2095 5330 c-8 -38 6 -65 16 -30 10 37 10 60 0 60 -5 0 -12 -13 -16
-30z"/>
<path d="M2071 5224 c0 -11 3 -14 6 -6 3 7 2 16 -1 19 -3 4 -6 -2 -5 -13z"/>
<path d="M10286 3696 c3 -9 11 -16 16 -16 13 0 5 23 -10 28 -7 2 -10 -2 -6
-12z"/>
<path d="M4300 4390 c0 -5 5 -10 10 -10 6 0 10 5 10 10 0 6 -4 10 -10 10 -5 0
-10 -4 -10 -10z"/>
<path d="M4305 4260 c3 -5 8 -10 11 -10 2 0 4 5 4 10 0 6 -5 10 -11 10 -5 0
-7 -4 -4 -10z"/>
<path d="M4317 3930 c3 -11 9 -17 15 -14 5 3 4 12 -3 20 -16 19 -18 18 -12 -6z"/>
<path d="M4228 3603 c-10 -2 -18 -9 -18 -14 0 -14 16 -11 30 6 7 8 11 14 9 14
-2 -1 -12 -3 -21 -6z"/>
<path d="M4383 3549 c-28 -10 -29 -15 -4 -28 25 -14 60 9 39 26 -8 7 -22 7
-35 2z"/>
<path d="M4250 3496 c0 -27 25 -55 32 -34 8 22 -4 58 -18 58 -8 0 -14 -10 -14
-24z"/>
<path d="M4365 3481 c-3 -5 -1 -12 5 -16 5 -3 10 1 10 9 0 18 -6 21 -15 7z"/>
<path d="M5213 2303 c-18 -6 -16 -23 1 -23 17 0 30 16 19 23 -5 2 -14 2 -20 0z"/>
<path d="M1680 7720 c0 -5 5 -10 11 -10 5 0 7 5 4 10 -3 6 -8 10 -11 10 -2 0
-4 -4 -4 -10z"/>
<path d="M1755 7650 c3 -5 8 -10 11 -10 2 0 4 5 4 10 0 6 -5 10 -11 10 -5 0
-7 -4 -4 -10z"/>
<path d="M62 7331 c-11 -7 -11 -9 2 -14 10 -4 16 -1 16 8 0 17 -1 17 -18 6z"/>
<path d="M30 6940 c6 -11 13 -20 15 -20 3 0 5 9 5 20 0 11 -7 20 -15 20 -13 0
-14 -4 -5 -20z"/>
<path d="M0 6821 c1 -22 2 -24 11 -8 5 9 17 17 24 17 26 0 16 15 -10 16 -21 2
-25 -3 -25 -25z"/>
<path d="M0 6736 c0 -9 5 -16 10 -16 6 0 10 4 10 9 0 6 -4 13 -10 16 -5 3 -10
-1 -10 -9z"/>
<path d="M40 6710 c0 -5 5 -10 10 -10 6 0 10 5 10 10 0 6 -4 10 -10 10 -5 0
-10 -4 -10 -10z"/>
<path d="M669 6443 c-7 -40 -10 -84 -15 -249 l-6 -191 34 -12 c18 -7 48 -19
66 -27 18 -8 64 -14 102 -14 38 0 80 -4 93 -9 25 -10 25 -10 21 -123 -2 -62 0
-119 4 -125 6 -10 19 -9 58 4 l51 16 -3 56 c-1 31 -3 60 -3 65 -1 5 -8 3 -16
-4 -13 -10 -15 -9 -15 10 0 15 5 20 14 17 27 -11 22 65 -7 110 -11 17 -7 356
4 370 18 20 -30 43 -92 43 -55 0 -88 -17 -75 -38 2 -4 1 -26 -4 -48 -5 -21
-12 -57 -15 -79 -6 -33 -8 -36 -17 -21 -5 9 -7 28 -4 42 8 31 -24 64 -61 64
-31 1 -71 26 -59 37 3 4 25 6 47 4 51 -3 79 6 79 25 0 15 -8 17 -92 16 -44 0
-58 3 -58 14 0 13 23 19 63 16 20 -2 22 9 5 26 -13 13 -97 17 -99 5z m188
-335 c-3 -8 -6 -5 -6 6 -1 11 2 17 5 13 3 -3 4 -12 1 -19z m-180 -20 c-3 -7
-5 -2 -5 12 0 14 2 19 5 13 2 -7 2 -19 0 -25z m183 -54 c0 -19 -4 -34 -10 -34
-5 0 -10 18 -10 41 0 24 4 38 10 34 6 -3 10 -22 10 -41z m-70 -13 c0 -26 -38
-38 -57 -18 -21 20 -8 37 28 37 22 0 29 -5 29 -19z"/>
<path d="M1117 6168 c-3 -7 -2 -34 0 -59 3 -25 -2 -108 -12 -185 -18 -149 -17
-275 1 -281 19 -6 26 59 29 274 2 112 7 208 10 213 8 13 -3 50 -15 50 -5 0
-10 -6 -13 -12z"/>
<path d="M1227 6134 c-4 -4 -7 -16 -7 -26 0 -10 -7 -21 -15 -24 -12 -5 -12 -9
0 -28 18 -27 4 -87 -26 -120 -11 -12 -19 -32 -17 -46 1 -14 -1 -31 -6 -38 -5
-8 -4 -18 3 -25 8 -8 11 -8 11 2 0 7 5 11 11 9 7 -2 32 17 56 43 38 41 46 56
53 107 6 42 16 67 34 87 29 31 32 40 14 51 -16 10 -103 16 -111 8z"/>
<path d="M570 4951 c0 -54 13 -94 32 -99 10 -2 21 -15 24 -28 10 -40 24 -27
26 24 1 26 2 56 2 67 1 11 5 25 9 32 10 16 -23 33 -62 33 -27 0 -31 -3 -31
-29z"/>
<path d="M680 4945 c0 -8 4 -15 9 -15 5 0 11 7 15 15 3 9 0 15 -9 15 -8 0 -15
-7 -15 -15z"/>
<path d="M673 4904 c-3 -8 -1 -20 6 -27 8 -8 11 -4 11 16 0 30 -7 35 -17 11z"/>
<path d="M645 4761 c-3 -6 5 -31 17 -58 27 -55 22 -54 190 -54 107 0 148 10
148 36 0 25 -30 33 -138 39 -42 2 -56 7 -69 26 l-16 23 -14 -27 c-17 -33 -48
-34 -69 -1 -17 26 -38 32 -49 16z"/>
<path d="M676 4605 c-11 -28 -7 -51 12 -67 24 -21 70 -28 83 -12 15 18 3 34
-27 34 -13 0 -24 6 -24 13 0 8 -8 22 -19 31 -17 15 -19 15 -25 1z"/>
<path d="M7 4123 c7 -2 19 -2 26 0 6 3 1 5 -13 5 -14 0 -19 -2 -13 -5z"/>
</g>
</svg>
